OxygenSans-Thin.ufo
<glyph name="parenright" format="1">
  <advance width="619"/>
  <unicode hex="0029"/>
  <outline>
    <contour>
      <point x="362" y="356"/>
      <point x="317" y="40"/>
      <point x="130" y="-247" type="curve"/>
      <point x="238" y="-247" type="line"/>
      <point x="392" y="-33"/>
      <point x="477" y="313"/>
      <point x="477" y="650" type="curve"/>
      <point x="477" y="945"/>
      <point x="400" y="1225"/>
      <point x="240" y="1464" type="curve"/>
      <point x="129" y="1464" type="line"/>
      <point x="322" y="1163"/>
      <point x="362" y="925"/>
      <point x="362" y="655" type="curve" smooth="yes"/>
    </contour>
  </outline>
</glyph>
<glyph name="slash" format="1">
  <advance width="933"/>
  <unicode hex="002F"/>
  <outline>
    <contour>
      <point x="100" y="-218" type="line"/>
      <point x="170" y="-218" type="line"/>
      <point x="833" y="1314" type="line"/>
      <point x="761" y="1314" type="line"/>
    </contour>
  </outline>
</glyph>
<glyph name="one" format="1">
  <advance width="1120"/>
  <unicode hex="0031"/>
  <outline>
    <contour>
      <point x="193" y="0" type="line"/>
      <point x="947" y="0" type="line"/>
      <point x="947" y="88" type="line"/>
      <point x="608" y="88" type="line"/>
      <point x="652" y="44" type="line"/>
      <point x="652" y="1354" type="line"/>
      <point x="540" y="1354" type="line"/>
      <point x="472" y="1306"/>
      <point x="293" y="1255"/>
      <point x="231" y="1246" type="curve"/>
      <point x="231" y="1153" type="line"/>
      <point x="303" y="1161"/>
      <point x="497" y="1215"/>
      <point x="574" y="1274" type="curve"/>
      <point x="538" y="1290" type="line"/>
      <point x="538" y="46" type="line"/>
      <point x="580" y="88" type="line"/>
      <point x="193" y="88" type="line"/>
    </contour>
  </outline>
</glyph>
<glyph name="three" format="1">
  <advance width="1120"/>
  <unicode hex="0033"/>
  <outline>
    <contour>
      <point x="174" y="75"/>
      <point x="338" y="-18"/>
      <point x="513" y="-18" type="curve" smooth="yes"/>
      <point x="804" y="-18"/>
      <point x="972" y="129"/>
      <point x="972" y="366" type="curve" smooth="yes"/>
      <point x="972" y="581"/>
      <point x="837" y="698"/>
      <point x="655" y="729" type="curve"/>
      <point x="827" y="763"/>
      <point x="937" y="848"/>
      <point x="937" y="1048" type="curve" smooth="yes"/>
      <point x="937" y="1264"/>
      <point x="737" y="1372"/>
      <point x="512" y="1372" type="curve" smooth="yes"/>
      <point x="383" y="1372"/>
      <point x="247" y="1335"/>
      <point x="135" y="1266" type="curve"/>
      <point x="174" y="1186" type="line"/>
      <point x="270" y="1247"/>
      <point x="393" y="1282"/>
      <point x="507" y="1282" type="curve" smooth="yes"/>
      <point x="677" y="1282"/>
      <point x="833" y="1211"/>
      <point x="833" y="1036" type="curve" smooth="yes"/>
      <point x="833" y="803"/>
      <point x="608" y="782"/>
      <point x="414" y="774" type="curve"/>
      <point x="380" y="774" type="line"/>
      <point x="380" y="680" type="line"/>
      <point x="406" y="680"/>
      <point x="385" y="680"/>
      <point x="412" y="680" type="curve"/>
      <point x="656" y="675"/>
      <point x="868" y="627"/>
      <point x="868" y="362" type="curve" smooth="yes"/>
      <point x="868" y="160"/>
      <point x="729" y="72"/>
      <point x="514" y="72" type="curve" smooth="yes"/>
      <point x="381" y="72"/>
      <point x="244" y="137"/>
      <point x="197" y="168" type="curve"/>
      <point x="156" y="88" type="line"/>
    </contour>
  </outline>
</glyph>
<glyph name="five" format="1">
  <advance width="1120"/>
  <unicode hex="0035"/>
  <outline>
    <contour>
      <point x="262" y="16"/>
      <point x="393" y="-19"/>
      <point x="516" y="-19" type="curve" smooth="yes"/>
      <point x="770" y="-19"/>
      <point x="995" y="130"/>
      <point x="995" y="433" type="curve" smooth="yes"/>
      <point x="995" y="651"/>
      <point x="857" y="840"/>
      <point x="575" y="840" type="curve" smooth="yes"/>
      <point x="479" y="840"/>
      <point x="398" y="820"/>
      <point x="306" y="759" type="curve"/>
      <point x="343" y="1265" type="line"/>
      <point x="924" y="1265" type="line"/>
      <point x="934" y="1354" type="line"/>
      <point x="254" y="1354" type="line"/>
      <point x="207" y="656" type="line"/>
      <point x="309" y="647" type="line"/>
      <point x="366" y="709"/>
      <point x="470" y="750"/>
      <point x="573" y="750" type="curve" smooth="yes"/>
      <point x="804" y="750"/>
      <point x="881" y="597"/>
      <point x="881" y="428" type="curve" smooth="yes"/>
      <point x="881" y="192"/>
      <point x="709" y="72"/>
      <point x="505" y="72" type="curve" smooth="yes"/>
      <point x="401" y="72"/>
      <point x="288" y="104"/>
      <point x="185" y="168" type="curve"/>
      <point x="147" y="86" type="line"/>
    </contour>
  </outline>
</glyph>
<glyph name="nine" format="1">
  <advance width="1120"/>
  <unicode hex="0039"/>
  <outline>
    <contour>
      <point x="313" y="-7" type="line"/>
      <point x="437" y="-7" type="line"/>
      <point x="790" y="420" type="line"/>
      <point x="963" y="648"/>
      <point x="993" y="762"/>
      <point x="993" y="942" type="curve" smooth="yes"/>
      <point x="993" y="1167"/>
      <point x="863" y="1372"/>
      <point x="581" y="1372" type="curve" smooth="yes"/>
      <point x="315" y="1372"/>
      <point x="161" y="1178"/>
      <point x="161" y="957" type="curve" smooth="yes"/>
      <point x="161" y="716"/>
      <point x="355" y="560"/>
      <point x="557" y="560" type="curve" smooth="yes"/>
      <point x="727" y="560"/>
      <point x="810.034" y="625.933"/>
      <point x="859.109" y="687.79" type="curve"/>
      <point x="830.527" y="635.935"/>
      <point x="769.169" y="553.682"/>
      <point x="709" y="475" type="curve"/>
    </contour>
    <contour>
      <point x="896" y="771"/>
      <point x="766" y="650"/>
      <point x="575" y="650" type="curve" smooth="yes"/>
      <point x="381" y="650"/>
      <point x="258" y="782"/>
      <point x="258" y="957" type="curve" smooth="yes"/>
      <point x="258" y="1121"/>
      <point x="376" y="1282"/>
      <point x="583" y="1282" type="curve" smooth="yes"/>
      <point x="792" y="1282"/>
      <point x="896" y="1129"/>
      <point x="896" y="964" type="curve" smooth="yes"/>
    </contour>
  </outline>
</glyph>
<glyph name="question" format="1">
  <advance width="854"/>
  <unicode hex="003F"/>
  <outline>
    <contour>
      <point x="595" y="926"/>
      <point x="300" y="555"/>
      <point x="325" y="374" type="curve"/>
      <point x="379" y="378" type="line"/>
      <point x="517" y="708"/>
      <point x="700" y="853"/>
      <point x="700" y="1120" type="curve" smooth="yes"/>
      <point x="700" y="1292"/>
      <point x="603" y="1403"/>
      <point x="390" y="1403" type="curve" smooth="yes"/>
      <point x="323" y="1403"/>
      <point x="191" y="1388"/>
      <point x="115" y="1320" type="curve"/>
      <point x="133" y="1224" type="line"/>
      <point x="171" y="1248"/>
      <point x="260" y="1296"/>
      <point x="364" y="1296" type="curve" smooth="yes"/>
      <point x="496" y="1296"/>
      <point x="593" y="1254"/>
      <point x="595" y="1119" type="curve"/>
    </contour>
    <contour>
      <point x="273" y="42"/>
      <point x="296" y="-14"/>
      <point x="375" y="-14" type="curve" smooth="yes"/>
      <point x="457" y="-14"/>
      <point x="482" y="41"/>
      <point x="482" y="89" type="curve" smooth="yes"/>
      <point x="482" y="137"/>
      <point x="457" y="191"/>
      <point x="375" y="191" type="curve" smooth="yes"/>
      <point x="296" y="191"/>
      <point x="273" y="137"/>
      <point x="273" y="89" type="curve" smooth="yes"/>
    </contour>
  </outline>
</glyph>
<glyph name="at" format="1">
  <advance width="1742"/>
  <unicode hex="0040"/>
  <outline>
    <contour>
      <point x="182" y="171"/>
      <point x="436" y="-105"/>
      <point x="857" y="-105" type="curve" smooth="yes"/>
      <point x="1028" y="-105"/>
      <point x="1212" y="-66"/>
      <point x="1327" y="11" type="curve"/>
      <point x="1293" y="85" type="line"/>
      <point x="1174" y="17"/>
      <point x="1036" y="-15"/>
      <point x="859" y="-15" type="curve" smooth="yes"/>
      <point x="494" y="-15"/>
      <point x="296" y="223"/>
      <point x="296" y="604" type="curve" smooth="yes"/>
      <point x="296" y="976"/>
      <point x="509" y="1280"/>
      <point x="909" y="1280" type="curve" smooth="yes"/>
      <point x="1319" y="1280"/>
      <point x="1503" y="1002"/>
      <point x="1503" y="723" type="curve" smooth="yes"/>
      <point x="1503" y="467"/>
      <point x="1384" y="342"/>
      <point x="1278" y="342" type="curve" smooth="yes"/>
      <point x="1148" y="342"/>
      <point x="1133" y="464"/>
      <point x="1133" y="530" type="curve" smooth="yes"/>
      <point x="1133" y="640"/>
      <point x="1167" y="764"/>
      <point x="1192" y="944" type="curve"/>
      <point x="1115" y="989"/>
      <point x="1036" y="1014"/>
      <point x="950" y="1014" type="curve" smooth="yes"/>
      <point x="691" y="1014"/>
      <point x="511" y="816"/>
      <point x="511" y="567" type="curve" smooth="yes"/>
      <point x="511" y="383"/>
      <point x="605" y="260"/>
      <point x="778" y="260" type="curve" smooth="yes"/>
      <point x="970" y="260"/>
      <point x="1086" y="493"/>
      <point x="1086" y="603" type="curve"/>
      <point x="1032" y="603" type="line"/>
      <point x="1040" y="426"/>
      <point x="1085" y="257"/>
      <point x="1267" y="257" type="curve" smooth="yes"/>
      <point x="1422" y="257"/>
      <point x="1612" y="414"/>
      <point x="1612" y="727" type="curve" smooth="yes"/>
      <point x="1612" y="1120"/>
      <point x="1306" y="1372"/>
      <point x="917" y="1372" type="curve" smooth="yes"/>
      <point x="468" y="1372"/>
      <point x="182" y="1048"/>
      <point x="182" y="610" type="curve" smooth="yes"/>
    </contour>
    <contour>
      <point x="1011" y="485"/>
      <point x="907" y="346"/>
      <point x="772" y="346" type="curve" smooth="yes"/>
      <point x="657" y="346"/>
      <point x="617" y="441"/>
      <point x="617" y="558" type="curve" smooth="yes"/>
      <point x="617" y="753"/>
      <point x="737" y="939"/>
      <point x="947" y="939" type="curve" smooth="yes"/>
      <point x="1019" y="939"/>
      <point x="1089" y="905"/>
      <point x="1133" y="891" type="curve"/>
      <point x="1076" y="983" type="line"/>
      <point x="1066" y="913"/>
      <point x="1048" y="754"/>
      <point x="1038" y="685" type="curve" smooth="yes"/>
    </contour>
  </outline>
</glyph>
<glyph name="A" format="1">
  <advance width="1223"/>
  <unicode hex="0041"/>
  <outline>
    <contour>
      <point x="366" y="548" type="line"/>
      <point x="366" y="548"/>
      <point x="612" y="1235"/>
      <point x="612" y="1235" type="curve"/>
      <point x="612" y="1235"/>
      <point x="869" y="548"/>
      <point x="869" y="548" type="curve"/>
    </contour>
    <contour>
      <point x="49" y="0" type="line"/>
      <point x="157" y="0" type="line"/>
      <point x="334" y="474" type="line"/>
      <point x="892" y="474" type="line"/>
      <point x="1071" y="0" type="line"/>
      <point x="1174" y="0" type="line"/>
      <point x="662" y="1354" type="line"/>
      <point x="561" y="1354" type="line"/>
    </contour>
    <contour>
      <point x="606" y="1339" type="move" name="top"/>
    </contour>
    <contour>
      <point x="1066" y="0" type="move" name="ogonek"/>
    </contour>
  </outline>
</glyph>
<glyph name="B" format="1">
  <advance width="1309"/>
  <unicode hex="0042"/>
  <outline>
    <contour>
      <point x="217" y="0" type="line"/>
      <point x="712" y="0" type="line" smooth="yes"/>
      <point x="1048" y="0"/>
      <point x="1184" y="153"/>
      <point x="1184" y="376" type="curve" smooth="yes"/>
      <point x="1184" y="539"/>
      <point x="1085" y="651"/>
      <point x="865" y="704" type="curve"/>
      <point x="1128" y="779"/>
      <point x="1118" y="969"/>
      <point x="1118" y="1025" type="curve" smooth="yes"/>
      <point x="1118" y="1246"/>
      <point x="959" y="1354"/>
      <point x="609" y="1354" type="curve" smooth="yes"/>
      <point x="217" y="1354" type="line"/>
    </contour>
    <contour>
      <point x="331" y="89" type="line"/>
      <point x="331" y="669" type="line"/>
      <point x="627" y="669" type="line" smooth="yes"/>
      <point x="926" y="669"/>
      <point x="1070" y="599"/>
      <point x="1070" y="374" type="curve" smooth="yes"/>
      <point x="1070" y="169"/>
      <point x="959" y="89"/>
      <point x="696" y="89" type="curve" smooth="yes"/>
    </contour>
    <contour>
      <point x="331" y="756" type="line"/>
      <point x="331" y="1265" type="line"/>
      <point x="621" y="1265" type="line" smooth="yes"/>
      <point x="879" y="1265"/>
      <point x="1012" y="1217"/>
      <point x="1012" y="1014" type="curve" smooth="yes"/>
      <point x="1012" y="801"/>
      <point x="887" y="756"/>
      <point x="696" y="756" type="curve" smooth="yes"/>
    </contour>
  </outline>
</glyph>
<glyph name="C" format="1">
  <advance width="1250"/>
  <unicode hex="0043"/>
  <outline>
    <contour>
      <point x="783" y="-18" type="curve" smooth="yes"/>
      <point x="962" y="-18"/>
      <point x="1115" y="38"/>
      <point x="1133" y="63" type="curve"/>
      <point x="1101" y="147" type="line"/>
      <point x="1009" y="107"/>
      <point x="928" y="74"/>
      <point x="805" y="74" type="curve" smooth="yes"/>
      <point x="431" y="74"/>
      <point x="258" y="340"/>
      <point x="258" y="675" type="curve" smooth="yes"/>
      <point x="258" y="1010"/>
      <point x="432" y="1274"/>
      <point x="785" y="1274" type="curve" smooth="yes"/>
      <point x="903" y="1274"/>
      <point x="1020" y="1244"/>
      <point x="1101" y="1191" type="curve"/>
      <point x="1147" y="1263" type="line"/>
      <point x="1069" y="1323"/>
      <point x="940" y="1366"/>
      <point x="772" y="1366" type="curve" smooth="yes"/>
      <point x="359" y="1366"/>
      <point x="144" y="1064"/>
      <point x="144" y="681" type="curve" smooth="yes"/>
      <point x="144" y="265"/>
      <point x="396" y="-18"/>
    </contour>
    <contour>
      <point x="641" y="1349" type="move" name="top"/>
    </contour>
    <contour>
      <point x="641" y="4" type="move" name="bottom"/>
    </contour>
  </outline>
</glyph>
<glyph name="D" format="1">
  <advance width="1457"/>
  <unicode hex="0044"/>
  <outline>
    <contour>
      <point x="331" y="1265" type="line"/>
      <point x="331" y="89" type="line"/>
      <point x="605" y="89" type="line" smooth="yes"/>
      <point x="1005" y="89"/>
      <point x="1199" y="282"/>
      <point x="1199" y="675" type="curve" smooth="yes"/>
      <point x="1199" y="1107"/>
      <point x="970" y="1265"/>
      <point x="580" y="1265" type="curve" smooth="yes"/>
    </contour>
    <contour>
      <point x="217" y="0" type="line"/>
      <point x="217" y="1354" type="line"/>
      <point x="595" y="1354" type="line" smooth="yes"/>
      <point x="1024" y="1354"/>
      <point x="1313" y="1156"/>
      <point x="1313" y="679" type="curve" smooth="yes"/>
      <point x="1313" y="229"/>
      <point x="1054" y="0"/>
      <point x="624" y="0" type="curve" smooth="yes"/>
    </contour>
    <contour>
      <point x="708" y="1349" type="move" name="top"/>
    </contour>
    <contour>
      <point x="708" y="675" type="move" name="center"/>
    </contour>
  </outline>
</glyph>
<glyph name="E" format="1">
  <advance width="1152"/>
  <unicode hex="0045"/>
  <outline>
    <contour>
      <point x="331" y="1265" type="line"/>
      <point x="331" y="740" type="line"/>
      <point x="948" y="740" type="line"/>
      <point x="948" y="651" type="line"/>
      <point x="331" y="651" type="line"/>
      <point x="331" y="89" type="line"/>
      <point x="1023" y="89" type="line"/>
      <point x="1014" y="0" type="line"/>
      <point x="217" y="0" type="line"/>
      <point x="217" y="1354" type="line"/>
      <point x="1023" y="1354" type="line"/>
      <point x="1019" y="1265" type="line"/>
    </contour>
    <contour>
      <point x="584" y="1349" type="move" name="top"/>
    </contour>
    <contour>
      <point x="1011" y="10" type="move" name="ogonek"/>
    </contour>
    <contour>
      <point x="584" y="0" type="move" name="bottom"/>
    </contour>
  </outline>
</glyph>
<glyph name="F" format="1">
  <advance width="1012"/>
  <unicode hex="0046"/>
  <outline>
    <contour>
      <point x="335" y="1265" type="line"/>
      <point x="335" y="722" type="line"/>
      <point x="902" y="722" type="line"/>
      <point x="902" y="639" type="line"/>
      <point x="335" y="639" type="line"/>
      <point x="335" y="0" type="line"/>
      <point x="217" y="0" type="line"/>
      <point x="217" y="1354" type="line"/>
      <point x="953" y="1354" type="line"/>
      <point x="944" y="1265" type="line"/>
    </contour>
  </outline>
</glyph>
<glyph name="G" format="1">
  <advance width="1401"/>
  <unicode hex="0047"/>
  <outline>
    <contour>
      <point x="786" y="-18" type="curve" smooth="yes"/>
      <point x="971" y="-18"/>
      <point x="1115" y="11"/>
      <point x="1249" y="60" type="curve"/>
      <point x="1249" y="676" type="line"/>
      <point x="831" y="676" type="line"/>
      <point x="822" y="577" type="line"/>
      <point x="1135" y="577" type="line"/>
      <point x="1135" y="121" type="line"/>
      <point x="1083" y="110"/>
      <point x="944" y="74"/>
      <point x="823" y="74" type="curve" smooth="yes"/>
      <point x="416" y="74"/>
      <point x="258" y="313"/>
      <point x="258" y="673" type="curve" smooth="yes"/>
      <point x="258" y="1009"/>
      <point x="452" y="1274"/>
      <point x="794" y="1274" type="curve" smooth="yes"/>
      <point x="1034" y="1274"/>
      <point x="1131" y="1203"/>
      <point x="1179" y="1173" type="curve"/>
      <point x="1208" y="1261" type="line"/>
      <point x="1110" y="1340"/>
      <point x="951" y="1366"/>
      <point x="797" y="1366" type="curve" smooth="yes"/>
      <point x="367" y="1366"/>
      <point x="144" y="1060"/>
      <point x="144" y="672" type="curve" smooth="yes"/>
      <point x="144" y="286"/>
      <point x="354" y="-18"/>
    </contour>
    <contour>
      <point x="708" y="1349" type="move" name="top"/>
    </contour>
    <contour>
      <point x="708" y="0" type="move" name="bottom"/>
    </contour>
  </outline>
</glyph>
<glyph name="H" format="1">
  <advance width="1438"/>
  <unicode hex="0048"/>
  <outline>
    <contour>
      <point x="331" y="748" type="line"/>
      <point x="331" y="1354" type="line"/>
      <point x="217" y="1354" type="line"/>
      <point x="217" y="0" type="line"/>
      <point x="331" y="0" type="line"/>
      <point x="331" y="671" type="line"/>
      <point x="1107" y="671" type="line"/>
      <point x="1107" y="0" type="line"/>
      <point x="1221" y="0" type="line"/>
      <point x="1221" y="1354" type="line"/>
      <point x="1107" y="1354" type="line"/>
      <point x="1107" y="748" type="line"/>
    </contour>
    <contour>
      <point x="714" y="1349" type="move" name="top"/>
    </contour>
    <contour>
      <point x="714" y="675" type="move" name="center"/>
    </contour>
  </outline>
</glyph>
<glyph name="I" format="1">
  <advance width="546"/>
  <unicode hex="0049"/>
  <outline>
    <contour>
      <point x="216" y="0" type="line"/>
      <point x="330" y="0" type="line"/>
      <point x="330" y="1354" type="line"/>
      <point x="216" y="1354" type="line"/>
    </contour>
    <contour>
      <point x="449" y="10" type="move" name="ogonek"/>
    </contour>
    <contour>
      <point x="273" y="1354" type="move" name="top"/>
    </contour>
  </outline>
</glyph>
<glyph name="J" format="1">
  <advance width="673"/>
  <unicode hex="004A"/>
  <outline>
    <contour>
      <point x="140" y="-131" type="line"/>
      <point x="447" y="-131"/>
      <point x="456" y="0"/>
      <point x="456" y="268" type="curve" smooth="yes"/>
      <point x="456" y="1353" type="line"/>
      <point x="342" y="1353" type="line"/>
      <point x="342" y="226" type="line" smooth="yes"/>
      <point x="342" y="12"/>
      <point x="326" y="-37"/>
      <point x="124" y="-37" type="curve"/>
    </contour>
    <contour>
      <point x="293" y="1349" type="move" name="top"/>
    </contour>
  </outline>
</glyph>
<glyph name="K" format="1">
  <advance width="1225"/>
  <unicode hex="004B"/>
  <outline>
    <contour>
      <point x="987" y="1354" type="curve"/>
      <point x="1122" y="1354" type="line"/>
      <point x="532" y="760" type="line"/>
      <point x="1150" y="0" type="line"/>
      <point x="1013" y="0" type="line"/>
      <point x="460" y="694" type="line"/>
      <point x="331" y="572" type="line"/>
      <point x="331" y="0" type="line"/>
      <point x="217" y="0" type="line"/>
      <point x="217" y="1354" type="line"/>
      <point x="331" y="1354" type="line"/>
      <point x="331" y="694" type="line"/>
      <point x="331" y="694"/>
      <point x="987" y="1354"/>
    </contour>
    <contour>
      <point x="609" y="1349" type="move" name="top"/>
    </contour>
    <contour>
      <point x="609" y="0" type="move" name="bottom"/>
    </contour>
  </outline>
</glyph>
<glyph name="L" format="1">
  <advance width="1054"/>
  <unicode hex="004C"/>
  <outline>
    <contour>
      <point x="977" y="89" type="line"/>
      <point x="977" y="0" type="line"/>
      <point x="217" y="0" type="line"/>
      <point x="217" y="1354" type="line"/>
      <point x="331" y="1354" type="line"/>
      <point x="331" y="89" type="line"/>
    </contour>
    <contour>
      <point x="511" y="1349" type="move" name="top"/>
    </contour>
    <contour>
      <point x="511" y="0" type="move" name="bottom"/>
    </contour>
  </outline>
</glyph>
<glyph name="M" format="1">
  <advance width="1696"/>
  <unicode hex="004D"/>
  <outline>
    <contour>
      <point x="1317" y="1354" type="line"/>
      <point x="1479" y="1354" type="line"/>
      <point x="1479" y="0" type="line"/>
      <point x="1374" y="0" type="line"/>
      <point x="1374" y="1004" type="line"/>
      <point x="1380" y="1265" type="line"/>
      <point x="912" y="98" type="line"/>
      <point x="793" y="98" type="line"/>
      <point x="316" y="1267" type="line"/>
      <point x="324" y="1000" type="line"/>
      <point x="324" y="0" type="line"/>
      <point x="217" y="0" type="line"/>
      <point x="217" y="1354" type="line"/>
      <point x="386" y="1354" type="line"/>
      <point x="853" y="213" type="line"/>
    </contour>
  </outline>
</glyph>
<glyph name="N" format="1">
  <advance width="1484"/>
  <unicode hex="004E"/>
  <outline>
    <contour>
      <point x="1175" y="146" type="line"/>
      <point x="1169" y="497" type="line"/>
      <point x="1169" y="1354" type="line"/>
      <point x="1267" y="1354" type="line"/>
      <point x="1267" y="0" type="line"/>
      <point x="1159" y="0" type="line"/>
      <point x="304" y="1222" type="line"/>
      <point x="304" y="1222"/>
      <point x="315" y="844"/>
      <point x="315" y="844" type="curve" smooth="yes"/>
      <point x="315" y="0" type="line"/>
      <point x="217" y="0" type="line"/>
      <point x="217" y="1354" type="line"/>
      <point x="321" y="1354" type="line"/>
    </contour>
    <contour>
      <point x="765" y="1349" type="move" name="top"/>
    </contour>
    <contour>
      <point x="765" y="0" type="move" name="bottom"/>
    </contour>
  </outline>
</glyph>
<glyph name="O" format="1">
  <advance width="1561"/>
  <unicode hex="004F"/>
  <outline>
    <contour>
      <point x="1417" y="664" type="curve" smooth="yes"/>
      <point x="1417" y="1083"/>
      <point x="1192" y="1366"/>
      <point x="784" y="1366" type="curve" smooth="yes"/>
      <point x="363" y="1366"/>
      <point x="144" y="1087"/>
      <point x="144" y="666" type="curve" smooth="yes"/>
      <point x="144" y="259"/>
      <point x="351" y="-18"/>
      <point x="783" y="-18" type="curve" smooth="yes"/>
      <point x="1207" y="-18"/>
      <point x="1417" y="268"/>
    </contour>
    <contour>
      <point x="782" y="74" type="curve" smooth="yes"/>
      <point x="411" y="74"/>
      <point x="258" y="319"/>
      <point x="258" y="666" type="curve" smooth="yes"/>
      <point x="258" y="1031"/>
      <point x="424" y="1274"/>
      <point x="783" y="1274" type="curve" smooth="yes"/>
      <point x="1143" y="1274"/>
      <point x="1303" y="1029"/>
      <point x="1303" y="666" type="curve" smooth="yes"/>
      <point x="1303" y="319"/>
      <point x="1153" y="74"/>
    </contour>
    <contour>
      <point x="781" y="1349" type="move" name="top"/>
    </contour>
  </outline>
</glyph>
<glyph name="P" format="1">
  <advance width="1170"/>
  <unicode hex="0050"/>
  <outline>
    <contour>
      <point x="953" y="800"/>
      <point x="850" y="715"/>
      <point x="655" y="715" type="curve" smooth="yes"/>
      <point x="331.0" y="715.0" type="line"/>
      <point x="331.0" y="1265.0" type="line"/>
      <point x="651" y="1265" type="line" smooth="yes"/>
      <point x="824" y="1265"/>
      <point x="948" y="1185"/>
      <point x="953" y="1010" type="curve" smooth="yes"/>
    </contour>
    <contour>
      <point x="331.0" y="626.0" type="line"/>
      <point x="653" y="626" type="line" smooth="yes"/>
      <point x="941" y="626"/>
      <point x="1067" y="772"/>
      <point x="1067" y="1009" type="curve"/>
      <point x="1067" y="1241"/>
      <point x="894" y="1354"/>
      <point x="658" y="1354" type="curve" smooth="yes"/>
      <point x="217.0" y="1354.0" type="line"/>
      <point x="217.0" y="0.0" type="line"/>
      <point x="331.0" y="0.0" type="line"/>
    </contour>
  </outline>
</glyph>
<glyph name="Q" format="1">
  <advance width="1556"/>
  <unicode hex="0051"/>
  <outline>
    <contour>
      <point x="1248" y="-321" type="line"/>
      <point x="1173" y="-243"/>
      <point x="1045" y="-85"/>
      <point x="996" y="20" type="curve"/>
      <point x="906" y="8" type="line"/>
      <point x="991" y="-159"/>
      <point x="1140" y="-321"/>
      <point x="1188" y="-375" type="curve"/>
    </contour>
    <component base="O"/>
  </outline>
</glyph>
<glyph name="R" format="1">
  <advance width="1348"/>
  <unicode hex="0052"/>
  <outline>
    <contour>
      <point x="640" y="775" type="line"/>
      <point x="991" y="775"/>
      <point x="1052" y="857"/>
      <point x="1052" y="1031" type="curve" smooth="yes"/>
      <point x="1052" y="1153"/>
      <point x="1021" y="1265"/>
      <point x="677" y="1265" type="curve" smooth="yes"/>
      <point x="331" y="1265" type="line"/>
      <point x="331" y="775" type="line"/>
    </contour>
    <contour>
      <point x="217" y="0" type="line"/>
      <point x="217" y="1354" type="line"/>
      <point x="689" y="1354" type="line" smooth="yes"/>
      <point x="1026" y="1354"/>
      <point x="1166" y="1242"/>
      <point x="1166" y="1032" type="curve" smooth="yes"/>
      <point x="1166" y="819"/>
      <point x="1041" y="746"/>
      <point x="915" y="713" type="curve"/>
      <point x="915" y="713"/>
      <point x="962" y="594"/>
      <point x="990" y="530" type="curve" smooth="yes"/>
      <point x="1218" y="0" type="line"/>
      <point x="1102" y="0" type="line"/>
      <point x="901" y="482" type="line"/>
      <point x="862" y="572"/>
      <point x="842" y="634"/>
      <point x="805" y="691" type="curve"/>
      <point x="772" y="687"/>
      <point x="646" y="685"/>
      <point x="617" y="685" type="curve" smooth="yes"/>
      <point x="587" y="685"/>
      <point x="331" y="685"/>
      <point x="331" y="685" type="curve"/>
      <point x="331" y="0" type="line"/>
    </contour>
    <contour>
      <point x="681" y="1349" type="move" name="top"/>
    </contour>
    <contour>
      <point x="681" y="0" type="move" name="bottom"/>
    </contour>
  </outline>
</glyph>
<glyph name="S" format="1">
  <advance width="1132.61448477"/>
  <unicode hex="0053"/>
  <outline>
    <contour>
      <point x="564" y="-19" type="curve" smooth="yes"/>
      <point x="805" y="-19"/>
      <point x="996" y="71"/>
      <point x="1011" y="343" type="curve" smooth="yes"/>
      <point x="1024" y="583"/>
      <point x="828" y="661"/>
      <point x="682" y="720" type="curve" smooth="yes"/>
      <point x="469" y="806" type="line" smooth="yes"/>
      <point x="310" y="870"/>
      <point x="258" y="916"/>
      <point x="264" y="1049" type="curve" smooth="yes"/>
      <point x="272" y="1233"/>
      <point x="436" y="1274"/>
      <point x="590" y="1274" type="curve" smooth="yes"/>
      <point x="757" y="1274"/>
      <point x="873" y="1197"/>
      <point x="900" y="1178" type="curve"/>
      <point x="952" y="1249" type="line"/>
      <point x="892" y="1300"/>
      <point x="754" y="1366"/>
      <point x="602" y="1366" type="curve" smooth="yes"/>
      <point x="395" y="1366"/>
      <point x="172" y="1311"/>
      <point x="158" y="1044" type="curve" smooth="yes"/>
      <point x="149" y="865"/>
      <point x="264" y="786"/>
      <point x="439" y="717" type="curve" smooth="yes"/>
      <point x="661" y="630" type="line" smooth="yes"/>
      <point x="863" y="551"/>
      <point x="918" y="468"/>
      <point x="911" y="339" type="curve" smooth="yes"/>
      <point x="900" y="146"/>
      <point x="780" y="70"/>
      <point x="569" y="73" type="curve" smooth="yes"/>
      <point x="383" y="75"/>
      <point x="280" y="136"/>
      <point x="189" y="205" type="curve"/>
      <point x="144" y="125" type="line"/>
      <point x="191" y="84"/>
      <point x="307" y="-19"/>
    </contour>
    <contour>
      <point x="580" y="1349" type="move" name="top"/>
    </contour>
    <contour>
      <point x="580" y="0" type="move" name="bottom"/>
    </contour>
  </outline>
</glyph>
<glyph name="T" format="1">
  <advance width="1069"/>
  <unicode hex="0054"/>
  <outline>
    <contour>
      <point x="1013" y="1354" type="line"/>
      <point x="1013" y="1264" type="line"/>
      <point x="589" y="1264" type="line"/>
      <point x="589" y="2" type="line"/>
      <point x="475" y="0" type="line"/>
      <point x="475" y="1264" type="line"/>
      <point x="56" y="1264" type="line"/>
      <point x="56" y="1354" type="line"/>
    </contour>
    <contour>
      <point x="538" y="1349" type="move" name="top"/>
    </contour>
    <contour>
      <point x="538" y="675" type="move" name="center"/>
    </contour>
    <contour>
      <point x="538" y="0" type="move" name="bottom"/>
    </contour>
  </outline>
</glyph>
<glyph name="U" format="1">
  <advance width="1384"/>
  <unicode hex="0055"/>
  <outline>
    <contour>
      <point x="691" y="-18" type="curve" smooth="yes"/>
      <point x="326" y="-18"/>
      <point x="167" y="213"/>
      <point x="167" y="502" type="curve" smooth="yes"/>
      <point x="167" y="1354" type="line"/>
      <point x="281" y="1354" type="line"/>
      <point x="281" y="499" type="line" smooth="yes"/>
      <point x="281" y="223"/>
      <point x="401" y="74"/>
      <point x="691" y="74" type="curve" smooth="yes"/>
      <point x="966" y="74"/>
      <point x="1103" y="222"/>
      <point x="1103" y="498" type="curve" smooth="yes"/>
      <point x="1103" y="1354" type="line"/>
      <point x="1217" y="1354" type="line"/>
      <point x="1217" y="499" type="line" smooth="yes"/>
      <point x="1217" y="210"/>
      <point x="1058" y="-18"/>
    </contour>
    <contour>
      <point x="695" y="1349" type="move" name="top"/>
    </contour>
    <contour>
      <point x="1210" y="10" type="move" name="ogonek"/>
    </contour>
  </outline>
</glyph>
<glyph name="V" format="1">
  <advance width="1270"/>
  <unicode hex="0056"/>
  <outline>
    <contour>
      <point x="670" y="0" type="line"/>
      <point x="1198" y="1354" type="line"/>
      <point x="1085" y="1354" type="line"/>
      <point x="748" y="455" type="line"/>
      <point x="635" y="158" type="line"/>
      <point x="523" y="450" type="line"/>
      <point x="186" y="1354" type="line"/>
      <point x="72" y="1354" type="line"/>
      <point x="601" y="0" type="line"/>
    </contour>
  </outline>
</glyph>
<glyph name="W" format="1">
  <advance width="1970"/>
  <unicode hex="0057"/>
  <outline>
    <contour>
      <point x="927" y="1315" type="line"/>
      <point x="1044" y="1315" type="line"/>
      <point x="1417" y="139" type="line"/>
      <point x="1790" y="1353" type="line"/>
      <point x="1899" y="1353" type="line"/>
      <point x="1473" y="0" type="line"/>
      <point x="1359" y="0" type="line"/>
      <point x="988" y="1198" type="line"/>
      <point x="614" y="0" type="line"/>
      <point x="503" y="0" type="line"/>
      <point x="71" y="1353" type="line"/>
      <point x="176" y="1353" type="line"/>
      <point x="556" y="139" type="line"/>
    </contour>
    <contour>
      <point x="985" y="1349" type="move" name="top"/>
    </contour>
  </outline>
</glyph>
<glyph name="X" format="1">
  <advance width="1278"/>
  <unicode hex="0058"/>
  <outline>
    <contour>
      <point x="707" y="661" type="line"/>
      <point x="1138" y="1354" type="line"/>
      <point x="1026" y="1354" type="line"/>
      <point x="645" y="726" type="line"/>
      <point x="243" y="1354" type="line"/>
      <point x="140" y="1354" type="line"/>
      <point x="581" y="669" type="line"/>
      <point x="156" y="0" type="line"/>
      <point x="261" y="0" type="line"/>
      <point x="645" y="599" type="line"/>
      <point x="1038" y="0" type="line"/>
      <point x="1138" y="0" type="line"/>
    </contour>
  </outline>
</glyph>
<glyph name="Y" format="1">
  <advance width="1144"/>
  <unicode hex="0059"/>
  <outline>
    <contour>
      <point x="590" y="644" type="line"/>
      <point x="977" y="1354" type="line"/>
      <point x="1083" y="1354" type="line"/>
      <point x="647" y="572" type="line"/>
      <point x="647" y="0" type="line"/>
      <point x="533" y="0" type="line"/>
      <point x="533" y="568" type="line"/>
      <point x="61" y="1354" type="line"/>
      <point x="166" y="1354" type="line"/>
    </contour>
    <contour>
      <point x="585" y="1349" type="move" name="top"/>
    </contour>
  </outline>
</glyph>
<glyph name="Z" format="1">
  <advance width="1142"/>
  <unicode hex="005A"/>
  <outline>
    <contour>
      <point x="189" y="1354" type="line"/>
      <point x="189" y="1265" type="line"/>
      <point x="905" y="1265" type="line"/>
      <point x="147" y="94" type="line"/>
      <point x="147" y="0" type="line"/>
      <point x="1019" y="0" type="line"/>
      <point x="1030" y="89" type="line"/>
      <point x="260" y="89" type="line"/>
      <point x="1024" y="1270" type="line"/>
      <point x="1015" y="1354" type="line"/>
    </contour>
    <contour>
      <point x="620" y="1349" type="move" name="top"/>
    </contour>
  </outline>
</glyph>
<glyph name="bracketleft" format="1">
  <advance width="599"/>
  <unicode hex="005B"/>
  <outline>
    <contour>
      <point x="107" y="-287" type="line"/>
      <point x="506" y="-287" type="line"/>
      <point x="506" y="-207" type="line"/>
      <point x="200" y="-207" type="line"/>
      <point x="200" y="1272" type="line"/>
      <point x="506" y="1272" type="line"/>
      <point x="506" y="1354" type="line"/>
      <point x="107" y="1354" type="line"/>
    </contour>
  </outline>
</glyph>
<glyph name="backslash" format="1">
  <advance width="897"/>
  <unicode hex="005C"/>
  <outline>
    <contour>
      <point x="667" y="-56" type="line"/>
      <point x="127" y="1354" type="line"/>
      <point x="205" y="1354" type="line"/>
      <point x="746" y="-56" type="line"/>
    </contour>
  </outline>
</glyph>
<glyph name="bracketright" format="1">
  <advance width="601"/>
  <unicode hex="005D"/>
  <outline>
    <contour>
      <point x="96" y="1272" type="line"/>
      <point x="96" y="1354" type="line"/>
      <point x="494" y="1354" type="line"/>
      <point x="494" y="-287" type="line"/>
      <point x="96" y="-287" type="line"/>
      <point x="96" y="-207" type="line"/>
      <point x="402" y="-207" type="line"/>
      <point x="402" y="1272" type="line"/>
    </contour>
  </outline>
</glyph>
<glyph name="grave" format="1">
  <advance width="689"/>
  <unicode hex="0060"/>
  <outline>
    <contour>
      <point x="431" y="1176" type="line"/>
      <point x="486" y="1176" type="line"/>
      <point x="325" y="1523" type="line"/>
      <point x="150" y="1523" type="line"/>
    </contour>
    <contour>
      <point x="318" y="986" type="move" name="_top"/>
    </contour>
  </outline>
</glyph>
<glyph name="a" format="1">
  <advance width="1076"/>
  <unicode hex="0061"/>
  <outline>
    <contour>
      <point x="118" y="81"/>
      <point x="245" y="-14"/>
      <point x="425" y="-14" type="curve" smooth="yes"/>
      <point x="546" y="-14"/>
      <point x="705" y="16"/>
      <point x="828" y="198" type="curve"/>
      <point x="795" y="198" type="line"/>
      <point x="818" y="4" type="line"/>
      <point x="898" y="4" type="line"/>
      <point x="898" y="656" type="line" smooth="yes"/>
      <point x="898" y="918"/>
      <point x="742" y="1005"/>
      <point x="519" y="1005" type="curve" smooth="yes"/>
      <point x="406" y="1005"/>
      <point x="257" y="968"/>
      <point x="182" y="923" type="curve"/>
      <point x="190" y="900"/>
      <point x="209" y="864"/>
      <point x="219" y="842" type="curve"/>
      <point x="308" y="891"/>
      <point x="438" y="919"/>
      <point x="539" y="919" type="curve" smooth="yes"/>
      <point x="710" y="919"/>
      <point x="787" y="828"/>
      <point x="787" y="676" type="curve" smooth="yes"/>
      <point x="787" y="544" type="line"/>
      <point x="817" y="577" type="line"/>
      <point x="596" y="577" type="line" smooth="yes"/>
      <point x="256" y="577"/>
      <point x="118" y="465"/>
      <point x="118" y="256" type="curve" smooth="yes"/>
    </contour>
    <contour>
      <point x="715" y="134"/>
      <point x="577" y="72"/>
      <point x="415" y="72" type="curve" smooth="yes"/>
      <point x="325" y="72"/>
      <point x="230" y="126"/>
      <point x="230" y="257" type="curve" smooth="yes"/>
      <point x="230" y="412"/>
      <point x="294" y="500"/>
      <point x="617" y="500" type="curve" smooth="yes"/>
      <point x="817" y="500" type="line"/>
      <point x="787" y="532" type="line"/>
      <point x="787" y="221" type="line"/>
      <point x="817" y="329" type="line"/>
    </contour>
    <contour>
      <point x="936" y="10" type="move" name="ogonek"/>
    </contour>
    <contour>
      <point x="519" y="986" type="move" name="top"/>
    </contour>
  </outline>
</glyph>
<glyph name="b" format="1">
  <advance width="1177"/>
  <unicode hex="0062"/>
  <outline>
    <contour>
      <point x="624" y="-18" type="curve" smooth="yes"/>
      <point x="911" y="-18"/>
      <point x="1063" y="180"/>
      <point x="1063" y="486" type="curve" smooth="yes"/>
      <point x="1063" y="800"/>
      <point x="924" y="1005"/>
      <point x="633" y="1005" type="curve" smooth="yes"/>
      <point x="503" y="1005"/>
      <point x="358" y="933"/>
      <point x="295" y="797" type="curve"/>
      <point x="295" y="997.236" type="line"/>
      <point x="295" y="1456" type="line"/>
      <point x="178" y="1444" type="line"/>
      <point x="178" y="0" type="line"/>
      <point x="292" y="0" type="line"/>
      <point x="307" y="171" type="line"/>
      <point x="367" y="63"/>
      <point x="489" y="-18"/>
    </contour>
    <contour>
      <point x="627" y="68" type="curve" smooth="yes"/>
      <point x="416" y="68"/>
      <point x="292" y="243"/>
      <point x="292" y="506" type="curve"/>
      <point x="291" y="739"/>
      <point x="391" y="919"/>
      <point x="641" y="919" type="curve" smooth="yes"/>
      <point x="876" y="919"/>
      <point x="949" y="724"/>
      <point x="949" y="488" type="curve" smooth="yes"/>
      <point x="949" y="240"/>
      <point x="858" y="68"/>
    </contour>
  </outline>
</glyph>
<glyph name="c" format="1">
  <advance width="937"/>
  <unicode hex="0063"/>
  <outline>
    <contour>
      <point x="120" y="204"/>
      <point x="298" y="-18"/>
      <point x="579" y="-18" type="curve" smooth="yes"/>
      <point x="690" y="-18"/>
      <point x="795" y="15"/>
      <point x="832" y="46" type="curve"/>
      <point x="804" y="118" type="line"/>
      <point x="762" y="94"/>
      <point x="676" y="68"/>
      <point x="595" y="68" type="curve" smooth="yes"/>
      <point x="342" y="68"/>
      <point x="232" y="265"/>
      <point x="232" y="483" type="curve" smooth="yes"/>
      <point x="232" y="732"/>
      <point x="358" y="918"/>
      <point x="609" y="918" type="curve" smooth="yes"/>
      <point x="624" y="918"/>
      <point x="699" y="921"/>
      <point x="794" y="869" type="curve"/>
      <point x="832" y="942" type="line"/>
      <point x="776" y="975"/>
      <point x="687" y="1004"/>
      <point x="592" y="1004" type="curve" smooth="yes"/>
      <point x="309" y="1004"/>
      <point x="120" y="784"/>
      <point x="120" y="483" type="curve" smooth="yes"/>
    </contour>
    <contour>
      <point x="471" y="986" type="move" name="top"/>
    </contour>
    <contour>
      <point x="471" y="0" type="move" name="bottom"/>
    </contour>
  </outline>
</glyph>
<glyph name="d" format="1">
  <advance width="1169"/>
  <unicode hex="0064"/>
  <outline>
    <contour>
      <point x="545" y="-18" type="curve" smooth="yes"/>
      <point x="682" y="-18"/>
      <point x="832" y="66"/>
      <point x="886" y="221" type="curve"/>
      <point x="900" y="0" type="line"/>
      <point x="991" y="0" type="line"/>
      <point x="991" y="1451" type="line"/>
      <point x="877" y="1443" type="line"/>
      <point x="877" y="1067" type="line" smooth="yes"/>
      <point x="877" y="983"/>
      <point x="882" y="848"/>
      <point x="887" y="768" type="curve"/>
      <point x="840" y="897"/>
      <point x="708" y="998"/>
      <point x="557" y="1004" type="curve" smooth="yes"/>
      <point x="275" y="1016"/>
      <point x="114" y="805"/>
      <point x="114" y="499" type="curve" smooth="yes"/>
      <point x="114" y="185"/>
      <point x="258" y="-18"/>
    </contour>
    <contour>
      <point x="541" y="68" type="curve" smooth="yes"/>
      <point x="309" y="68"/>
      <point x="228" y="261"/>
      <point x="228" y="497" type="curve" smooth="yes"/>
      <point x="228" y="745"/>
      <point x="320" y="919"/>
      <point x="548" y="919" type="curve" smooth="yes"/>
      <point x="756" y="919"/>
      <point x="880" y="745"/>
      <point x="880" y="482" type="curve"/>
      <point x="881" y="249"/>
      <point x="788" y="68"/>
    </contour>
    <contour>
      <point x="560" y="492" type="move" name="center"/>
    </contour>
  </outline>
</glyph>
<glyph name="e" format="1">
  <advance width="1074"/>
  <unicode hex="0065"/>
  <outline>
    <contour>
      <point x="120" y="171"/>
      <point x="312" y="-18"/>
      <point x="581" y="-18" type="curve" smooth="yes"/>
      <point x="725" y="-18"/>
      <point x="836" y="17"/>
      <point x="930" y="69" type="curve"/>
      <point x="896" y="143" type="line"/>
      <point x="780" y="86"/>
      <point x="687" y="70"/>
      <point x="590" y="70" type="curve" smooth="yes"/>
      <point x="387" y="70"/>
      <point x="228" y="194"/>
      <point x="228" y="511" type="curve"/>
      <point x="190" y="487" type="line"/>
      <point x="947" y="487" type="line"/>
      <point x="947" y="487"/>
      <point x="952" y="521"/>
      <point x="952" y="550" type="curve" smooth="yes"/>
      <point x="952" y="827"/>
      <point x="816" y="1004"/>
      <point x="576" y="1004" type="curve" smooth="yes"/>
      <point x="333" y="1004"/>
      <point x="120" y="812"/>
      <point x="120" y="485" type="curve" smooth="yes"/>
    </contour>
    <contour>
      <point x="231" y="527" type="line"/>
      <point x="242" y="754"/>
      <point x="375" y="918"/>
      <point x="581" y="918" type="curve" smooth="yes"/>
      <point x="775" y="918"/>
      <point x="859" y="778"/>
      <point x="859" y="518" type="curve"/>
      <point x="905" y="558" type="line"/>
      <point x="190" y="558" type="line"/>
    </contour>
    <contour>
      <point x="934" y="10" type="move" name="ogonek"/>
    </contour>
    <contour>
      <point x="530" y="0" type="move" name="bottom"/>
    </contour>
    <contour>
      <point x="530" y="986" type="move" name="top"/>
    </contour>
  </outline>
</glyph>
<glyph name="f" format="1">
  <advance width="714.026391004"/>
  <unicode hex="0066"/>
  <outline>
    <contour>
      <point x="268" y="0" type="line"/>
      <point x="382" y="0" type="line"/>
      <point x="382" y="919" type="line"/>
      <point x="618" y="919" type="line"/>
      <point x="618" y="986" type="line"/>
      <point x="382" y="986" type="line"/>
      <point x="382" y="1042" type="line" smooth="yes"/>
      <point x="382" y="1249"/>
      <point x="441" y="1309"/>
      <point x="558" y="1309" type="curve" smooth="yes"/>
      <point x="591" y="1309"/>
      <point x="633" y="1303"/>
      <point x="654" y="1299" type="curve"/>
      <point x="658" y="1389" type="line"/>
      <point x="677" y="1387"/>
      <point x="557" y="1403"/>
      <point x="523" y="1403" type="curve" smooth="yes"/>
      <point x="358" y="1403"/>
      <point x="268" y="1297"/>
      <point x="268" y="1061" type="curve" smooth="yes"/>
      <point x="268" y="987" type="line"/>
      <point x="78" y="970" type="line"/>
      <point x="73" y="919" type="line"/>
      <point x="268" y="919" type="line"/>
    </contour>
  </outline>
</glyph>
<glyph name="g" format="1">
  <advance width="1200"/>
  <unicode hex="0067"/>
  <outline>
    <contour>
      <point x="519" y="-398" type="line"/>
      <point x="957" y="-398"/>
      <point x="1030" y="-194"/>
      <point x="1030" y="89" type="curve" smooth="yes"/>
      <point x="1030" y="986" type="line"/>
      <point x="923" y="986" type="line"/>
      <point x="910" y="756" type="line"/>
      <point x="941" y="756" type="line"/>
      <point x="891" y="892"/>
      <point x="775" y="1004"/>
      <point x="580" y="1004" type="curve" smooth="yes"/>
      <point x="232" y="1004"/>
      <point x="120" y="731"/>
      <point x="120" y="481" type="curve" smooth="yes"/>
      <point x="120" y="273"/>
      <point x="243" y="0"/>
      <point x="566" y="0" type="curve" smooth="yes"/>
      <point x="789" y="0"/>
      <point x="917" y="146"/>
      <point x="947" y="268" type="curve"/>
      <point x="913" y="256" type="line"/>
      <point x="913" y="89" type="line" smooth="yes"/>
      <point x="913" y="-204"/>
      <point x="838" y="-304"/>
      <point x="493" y="-304" type="curve"/>
      <point x="303" y="-304" type="line"/>
      <point x="303" y="-398" type="line"/>
    </contour>
    <contour>
      <point x="916" y="227"/>
      <point x="789" y="87"/>
      <point x="561" y="87" type="curve" smooth="yes"/>
      <point x="310" y="87"/>
      <point x="234" y="326"/>
      <point x="234" y="490" type="curve" smooth="yes"/>
      <point x="234" y="651"/>
      <point x="304" y="918"/>
      <point x="559" y="918" type="curve"/>
      <point x="813" y="918"/>
      <point x="916" y="747"/>
      <point x="916" y="487" type="curve"/>
    </contour>
    <contour>
      <point x="604" y="986" type="move" name="top"/>
    </contour>
  </outline>
</glyph>
<glyph name="h" format="1">
  <advance width="1129"/>
  <unicode hex="0068"/>
  <outline>
    <contour>
      <point x="178" y="1444" type="line"/>
      <point x="178" y="0" type="line"/>
      <point x="292" y="0" type="line"/>
      <point x="292" y="567" type="line" smooth="yes"/>
      <point x="292" y="595"/>
      <point x="295" y="623"/>
      <point x="295" y="658" type="curve"/>
      <point x="319" y="797"/>
      <point x="411" y="919"/>
      <point x="619" y="919" type="curve" smooth="yes"/>
      <point x="787" y="919"/>
      <point x="848" y="812"/>
      <point x="848" y="606" type="curve" smooth="yes"/>
      <point x="848" y="0" type="line"/>
      <point x="962" y="0" type="line"/>
      <point x="962" y="605" type="line" smooth="yes"/>
      <point x="962" y="851"/>
      <point x="855" y="1005"/>
      <point x="635" y="1005" type="curve" smooth="yes"/>
      <point x="501" y="1005"/>
      <point x="345" y="945"/>
      <point x="286" y="810" type="curve"/>
      <point x="286" y="810"/>
      <point x="292" y="1047"/>
      <point x="292" y="1029" type="curve" smooth="yes"/>
      <point x="292" y="1456" type="line"/>
    </contour>
    <contour>
      <point x="549" y="986" type="move" name="top"/>
    </contour>
    <contour>
      <point x="549" y="494" type="move" name="center"/>
    </contour>
  </outline>
</glyph>
<glyph name="i" format="1">
  <advance width="471"/>
  <unicode hex="0069"/>
  <outline>
    <contour>
      <point x="181" y="0" type="line"/>
      <point x="181" y="986" type="line"/>
      <point x="295" y="986" type="line"/>
      <point x="295" y="0" type="line"/>
    </contour>
    <contour>
      <point x="181" y="1209" type="line"/>
      <point x="181" y="1354" type="line"/>
      <point x="295" y="1354" type="line"/>
      <point x="295" y="1209" type="line"/>
    </contour>
  </outline>
</glyph>
<glyph name="j" format="1">
  <advance width="513"/>
  <unicode hex="006A"/>
  <outline>
    <contour>
      <point x="228" y="1209" type="line"/>
      <point x="344" y="1209" type="line"/>
      <point x="344" y="1364" type="line"/>
      <point x="228" y="1364" type="line"/>
    </contour>
    <contour>
      <point x="60" y="-411" type="line"/>
      <point x="99" y="-411" type="line" smooth="yes"/>
      <point x="294" y="-411"/>
      <point x="344" y="-359"/>
      <point x="344" y="-139" type="curve" smooth="yes"/>
      <point x="344" y="985" type="line"/>
      <point x="228" y="985" type="line"/>
      <point x="228" y="-84" type="line" smooth="yes"/>
      <point x="228" y="-243"/>
      <point x="267" y="-303"/>
      <point x="84" y="-303" type="curve" smooth="yes"/>
      <point x="47" y="-303" type="line"/>
    </contour>
  </outline>
</glyph>
<glyph name="k" format="1">
  <advance width="1025"/>
  <unicode hex="006B"/>
  <outline>
    <contour>
      <point x="178" y="1444" type="line"/>
      <point x="292" y="1457" type="line"/>
      <point x="292" y="657" type="line"/>
      <point x="286" y="464" type="line"/>
      <point x="842" y="986" type="line"/>
      <point x="975" y="986" type="line"/>
      <point x="486" y="528" type="line"/>
      <point x="981" y="0" type="line"/>
      <point x="849" y="0" type="line"/>
      <point x="425" y="473" type="line"/>
      <point x="292" y="358" type="line"/>
      <point x="292" y="0" type="line"/>
      <point x="178" y="0" type="line"/>
    </contour>
    <contour>
      <point x="503" y="0" type="move" name="bottom"/>
    </contour>
  </outline>
</glyph>
<glyph name="l" format="1">
  <advance width="549"/>
  <unicode hex="006C"/>
  <outline>
    <contour>
      <point x="354" y="-12" type="curve" smooth="yes"/>
      <point x="371" y="-12"/>
      <point x="390" y="-11"/>
      <point x="409" y="-10" type="curve"/>
      <point x="402" y="68" type="line"/>
      <point x="391" y="68" type="line"/>
      <point x="306" y="68"/>
      <point x="294" y="124"/>
      <point x="294" y="236" type="curve" smooth="yes"/>
      <point x="294" y="1456" type="line"/>
      <point x="180" y="1444" type="line"/>
      <point x="180" y="242" type="line" smooth="yes"/>
      <point x="180" y="26"/>
      <point x="243" y="-12"/>
    </contour>
    <contour>
      <point x="236" y="986" type="move" name="top"/>
    </contour>
    <contour>
      <point x="437" y="986" type="move" name="topright"/>
    </contour>
    <contour>
      <point x="236" y="0" type="move" name="bottom"/>
    </contour>
  </outline>
</glyph>
<glyph name="m" format="1">
  <advance width="1665"/>
  <unicode hex="006D"/>
  <outline>
    <contour>
      <point x="288" y="545" type="line" smooth="yes"/>
      <point x="288" y="581"/>
      <point x="289" y="630"/>
      <point x="289" y="653" type="curve"/>
      <point x="316" y="802"/>
      <point x="437" y="919"/>
      <point x="587" y="919" type="curve" smooth="yes"/>
      <point x="741" y="919"/>
      <point x="792" y="809"/>
      <point x="792" y="545" type="curve" smooth="yes"/>
      <point x="792" y="0" type="line"/>
      <point x="898" y="0" type="line"/>
      <point x="898" y="495" type="line"/>
      <point x="893" y="546"/>
      <point x="902" y="667"/>
      <point x="902" y="691" type="curve"/>
      <point x="942" y="855"/>
      <point x="1069" y="919"/>
      <point x="1187" y="919" type="curve" smooth="yes"/>
      <point x="1393" y="919"/>
      <point x="1392" y="694"/>
      <point x="1392" y="561" type="curve" smooth="yes"/>
      <point x="1392" y="0" type="line"/>
      <point x="1498" y="0" type="line"/>
      <point x="1498" y="639" type="line" smooth="yes"/>
      <point x="1498" y="879"/>
      <point x="1394" y="1005"/>
      <point x="1199" y="1005" type="curve" smooth="yes"/>
      <point x="1063" y="1005"/>
      <point x="938" y="946"/>
      <point x="867" y="769" type="curve"/>
      <point x="848" y="852"/>
      <point x="789" y="1005"/>
      <point x="591" y="1005" type="curve" smooth="yes"/>
      <point x="475" y="1005"/>
      <point x="366" y="946"/>
      <point x="281" y="810" type="curve"/>
      <point x="266" y="986" type="line"/>
      <point x="178" y="986" type="line"/>
      <point x="178" y="883"/>
      <point x="182" y="0"/>
      <point x="182" y="0" type="curve"/>
      <point x="288" y="0" type="line"/>
    </contour>
  </outline>
</glyph>
<glyph name="n" format="1">
  <advance width="1128"/>
  <unicode hex="006E"/>
  <outline>
    <contour>
      <point x="180" y="0" type="line"/>
      <point x="294" y="0" type="line"/>
      <point x="294" y="579" type="line" smooth="yes"/>
      <point x="294" y="745"/>
      <point x="361" y="918"/>
      <point x="621" y="918" type="curve" smooth="yes"/>
      <point x="795" y="918"/>
      <point x="845" y="806"/>
      <point x="844" y="630" type="curve" smooth="yes"/>
      <point x="844" y="0" type="line"/>
      <point x="958" y="0" type="line"/>
      <point x="958" y="594" type="line" smooth="yes"/>
      <point x="958" y="873"/>
      <point x="858" y="1004"/>
      <point x="632" y="1004" type="curve" smooth="yes"/>
      <point x="437" y="1004"/>
      <point x="324" y="914"/>
      <point x="270" y="786" type="curve"/>
      <point x="304" y="786" type="line"/>
      <point x="285" y="986" type="line"/>
      <point x="180" y="986" type="line"/>
    </contour>
    <contour>
      <point x="545" y="986" type="move" name="top"/>
    </contour>
    <contour>
      <point x="545" y="0" type="move" name="bottom"/>
    </contour>
  </outline>
</glyph>
<glyph name="o" format="1">
  <advance width="1138"/>
  <unicode hex="006F"/>
  <outline>
    <contour>
      <point x="569" y="-18" type="curve" smooth="yes"/>
      <point x="837" y="-18"/>
      <point x="1024" y="203"/>
      <point x="1024" y="490" type="curve" smooth="yes"/>
      <point x="1024" y="790"/>
      <point x="862" y="1005"/>
      <point x="569" y="1005" type="curve" smooth="yes"/>
      <point x="284" y="1005"/>
      <point x="114" y="785"/>
      <point x="114" y="490" type="curve" smooth="yes"/>
      <point x="114" y="200"/>
      <point x="284" y="-18"/>
    </contour>
    <contour>
      <point x="569" y="68" type="curve" smooth="yes"/>
      <point x="328" y="68"/>
      <point x="226" y="259"/>
      <point x="226" y="488" type="curve" smooth="yes"/>
      <point x="226" y="726"/>
      <point x="328" y="919"/>
      <point x="569" y="919" type="curve" smooth="yes"/>
      <point x="816" y="919"/>
      <point x="912" y="725"/>
      <point x="912" y="487" type="curve" smooth="yes"/>
      <point x="912" y="259"/>
      <point x="819" y="68"/>
    </contour>
    <contour>
      <point x="569" y="986" type="move" name="top"/>
    </contour>
  </outline>
</glyph>
<glyph name="p" format="1">
  <advance width="1169"/>
  <unicode hex="0070"/>
  <outline>
    <contour>
      <point x="178" y="986" type="line"/>
      <point x="269" y="986" type="line"/>
      <point x="283" y="770" type="line"/>
      <point x="337" y="925"/>
      <point x="490" y="1005"/>
      <point x="627" y="1005" type="curve" smooth="yes"/>
      <point x="914" y="1005"/>
      <point x="1055" y="800"/>
      <point x="1055" y="486" type="curve" smooth="yes"/>
      <point x="1055" y="180"/>
      <point x="894" y="-29"/>
      <point x="612" y="-17" type="curve" smooth="yes"/>
      <point x="461" y="-11"/>
      <point x="329" y="92"/>
      <point x="282" y="221" type="curve"/>
      <point x="287" y="141"/>
      <point x="292" y="3"/>
      <point x="292" y="-81" type="curve" smooth="yes"/>
      <point x="292" y="-441" type="line"/>
      <point x="178" y="-449" type="line"/>
    </contour>
    <contour>
      <point x="621" y="68" type="curve" smooth="yes"/>
      <point x="849" y="68"/>
      <point x="941" y="240"/>
      <point x="941" y="488" type="curve" smooth="yes"/>
      <point x="941" y="724"/>
      <point x="865" y="919"/>
      <point x="633" y="919" type="curve" smooth="yes"/>
      <point x="386" y="919"/>
      <point x="288" y="738"/>
      <point x="289" y="505" type="curve"/>
      <point x="289" y="242"/>
      <point x="413" y="68"/>
    </contour>
  </outline>
</glyph>
<glyph name="q" format="1">
  <advance width="1211"/>
  <unicode hex="0071"/>
  <outline>
    <contour>
      <point x="1033" y="986" type="line"/>
      <point x="927" y="986" type="line"/>
      <point x="910" y="788" type="line"/>
      <point x="851" y="940"/>
      <point x="693" y="1005"/>
      <point x="560" y="1005" type="curve" smooth="yes"/>
      <point x="276" y="1005"/>
      <point x="114" y="789"/>
      <point x="114" y="481" type="curve" smooth="yes"/>
      <point x="114" y="192"/>
      <point x="294" y="-23"/>
      <point x="555" y="-23" type="curve" smooth="yes"/>
      <point x="677" y="-23"/>
      <point x="839" y="36"/>
      <point x="926" y="155" type="curve"/>
      <point x="920" y="69"/>
      <point x="921" y="-19"/>
      <point x="921" y="-102" type="curve" smooth="yes"/>
      <point x="921" y="-449" type="line"/>
      <point x="1033" y="-443" type="line"/>
    </contour>
    <contour>
      <point x="570" y="61" type="curve" smooth="yes"/>
      <point x="335" y="61"/>
      <point x="226" y="247"/>
      <point x="226" y="493" type="curve" smooth="yes"/>
      <point x="226" y="727"/>
      <point x="327" y="921"/>
      <point x="572" y="921" type="curve" smooth="yes"/>
      <point x="824" y="921"/>
      <point x="913" y="746"/>
      <point x="913" y="530" type="curve"/>
      <point x="916" y="253"/>
      <point x="842" y="61"/>
    </contour>
  </outline>
</glyph>
<glyph name="r" format="1">
  <advance width="757"/>
  <unicode hex="0072"/>
  <outline>
    <contour>
      <point x="178" y="986" type="line"/>
      <point x="264" y="986" type="line"/>
      <point x="278" y="760" type="line"/>
      <point x="350" y="919"/>
      <point x="467" y="998"/>
      <point x="596" y="998" type="curve" smooth="yes"/>
      <point x="626" y="998"/>
      <point x="654" y="996"/>
      <point x="674" y="993" type="curve"/>
      <point x="666" y="903" type="line"/>
      <point x="646" y="908"/>
      <point x="622" y="910"/>
      <point x="603" y="910" type="curve" smooth="yes"/>
      <point x="428" y="910"/>
      <point x="292" y="748"/>
      <point x="292" y="568" type="curve" smooth="yes"/>
      <point x="292" y="0" type="line"/>
      <point x="178" y="0" type="line"/>
    </contour>
    <contour>
      <point x="348" y="986" type="move" name="top"/>
    </contour>
    <contour>
      <point x="348" y="0" type="move" name="bottom"/>
    </contour>
  </outline>
</glyph>
<glyph name="s" format="1">
  <advance width="915"/>
  <unicode hex="0073"/>
  <outline>
    <contour>
      <point x="452" y="-18" type="curve" smooth="yes"/>
      <point x="318" y="-18"/>
      <point x="195" y="17"/>
      <point x="156" y="36" type="curve"/>
      <point x="186" y="116" type="line"/>
      <point x="237" y="98"/>
      <point x="319" y="68"/>
      <point x="459" y="68" type="curve" smooth="yes"/>
      <point x="622" y="68"/>
      <point x="692" y="130"/>
      <point x="692" y="245" type="curve"/>
      <point x="692" y="349"/>
      <point x="660" y="403"/>
      <point x="470" y="461" type="curve" smooth="yes"/>
      <point x="378" y="489" type="line" smooth="yes"/>
      <point x="190" y="546"/>
      <point x="136" y="643"/>
      <point x="135" y="743" type="curve"/>
      <point x="135" y="879"/>
      <point x="252" y="1005"/>
      <point x="470" y="1005" type="curve" smooth="yes"/>
      <point x="588" y="1005"/>
      <point x="656" y="990"/>
      <point x="737" y="955" type="curve"/>
      <point x="707" y="870" type="line"/>
      <point x="648" y="896"/>
      <point x="587" y="919"/>
      <point x="482" y="919" type="curve" smooth="yes"/>
      <point x="320" y="919"/>
      <point x="234" y="843"/>
      <point x="234" y="752" type="curve" smooth="yes"/>
      <point x="234" y="652"/>
      <point x="286" y="608"/>
      <point x="420" y="569" type="curve"/>
      <point x="420" y="569"/>
      <point x="505" y="542"/>
      <point x="505" y="542" type="curve"/>
      <point x="739" y="470"/>
      <point x="788" y="389"/>
      <point x="788" y="244" type="curve" smooth="yes"/>
      <point x="783" y="71"/>
      <point x="661" y="-18"/>
    </contour>
    <contour>
      <point x="457" y="984" type="move" name="top"/>
    </contour>
    <contour>
      <point x="457" y="0" type="move" name="bottom"/>
    </contour>
  </outline>
</glyph>
<glyph name="t" format="1">
  <advance width="744"/>
  <unicode hex="0074"/>
  <outline>
    <contour>
      <point x="228" y="68"/>
      <point x="311" y="-10"/>
      <point x="476" y="-10" type="curve" smooth="yes"/>
      <point x="573" y="-10"/>
      <point x="638" y="5"/>
      <point x="638" y="5" type="curve"/>
      <point x="638" y="78" type="line"/>
      <point x="638" y="78"/>
      <point x="547" y="68"/>
      <point x="511" y="68" type="curve" smooth="yes"/>
      <point x="396" y="68"/>
      <point x="342" y="91"/>
      <point x="342" y="250" type="curve" smooth="yes"/>
      <point x="342" y="946" type="line"/>
      <point x="312" y="919" type="line"/>
      <point x="645" y="919" type="line"/>
      <point x="645" y="986" type="line"/>
      <point x="312" y="986" type="line"/>
      <point x="342" y="957" type="line"/>
      <point x="342" y="1240" type="line"/>
      <point x="267" y="1235" type="line"/>
      <point x="228" y="965" type="line"/>
      <point x="266" y="987" type="line"/>
      <point x="90" y="977" type="line"/>
      <point x="90" y="919" type="line"/>
      <point x="258" y="919" type="line"/>
      <point x="228" y="953" type="line"/>
      <point x="228" y="261" type="line" smooth="yes"/>
    </contour>
    <contour>
      <point x="353" y="494" type="move" name="center"/>
    </contour>
    <contour>
      <point x="353" y="0" type="move" name="bottom"/>
    </contour>
  </outline>
</glyph>
<glyph name="u" format="1">
  <advance width="1128"/>
  <unicode hex="0075"/>
  <outline>
    <component base="n" xOffset="1128" yOffset="986" xScale="-1" yScale="-1"/>
    <contour>
      <point x="972" y="10" type="move" name="ogonek"/>
    </contour>
    <contour>
      <point x="550" y="986" type="move" name="top"/>
    </contour>
  </outline>
</glyph>
<glyph name="v" format="1">
  <advance width="999"/>
  <unicode hex="0076"/>
  <outline>
    <contour>
      <point x="440.0" y="0.0" type="line"/>
      <point x="561.0" y="0.0" type="line"/>
      <point x="937.0" y="986.0" type="line"/>
      <point x="824.0" y="986.0" type="line" smooth="yes"/>
      <point x="613.0" y="409.0" type="line"/>
      <point x="481.0" y="56.0" type="line"/>
      <point x="519.0" y="56.0" type="line"/>
      <point x="388.0" y="406.0" type="line"/>
      <point x="175.0" y="986.0" type="line"/>
      <point x="62.0" y="986.0" type="line"/>
    </contour>
  </outline>
</glyph>
<glyph name="w" format="1">
  <advance width="1449"/>
  <unicode hex="0077"/>
  <outline>
    <contour>
      <point x="339" y="0" type="line"/>
      <point x="449" y="0" type="line" smooth="yes"/>
      <point x="740" y="949" type="line"/>
      <point x="715" y="949" type="line"/>
      <point x="1036" y="0" type="line"/>
      <point x="1129" y="0" type="line"/>
      <point x="1383" y="986" type="line"/>
      <point x="1283" y="986" type="line"/>
      <point x="1066" y="57" type="line"/>
      <point x="1099" y="57" type="line"/>
      <point x="791" y="986" type="line"/>
      <point x="661" y="986" type="line"/>
      <point x="377" y="57" type="line"/>
      <point x="408" y="57" type="line"/>
      <point x="170" y="986" type="line"/>
      <point x="66" y="986" type="line"/>
    </contour>
    <contour>
      <point x="724" y="986" type="move" name="top"/>
    </contour>
  </outline>
</glyph>
<glyph name="x" format="1">
  <advance width="1015"/>
  <unicode hex="0078"/>
  <outline>
    <contour>
      <point x="504" y="580" type="line"/>
      <point x="810" y="985" type="line"/>
      <point x="932" y="985" type="line"/>
      <point x="555" y="496" type="line"/>
      <point x="940" y="0" type="line"/>
      <point x="833" y="0" type="line"/>
      <point x="504" y="423" type="line"/>
      <point x="181" y="0" type="line"/>
      <point x="75" y="0" type="line"/>
      <point x="450" y="500" type="line"/>
      <point x="86" y="985" type="line"/>
      <point x="192" y="985" type="line"/>
    </contour>
  </outline>
</glyph>
<glyph name="y" format="1">
  <advance width="1013"/>
  <unicode hex="0079"/>
  <outline>
    <contour>
      <point x="430" y="-374" type="line"/>
      <point x="960" y="986" type="line"/>
      <point x="842" y="986" type="line"/>
      <point x="532" y="138" type="line"/>
      <point x="203" y="986" type="line"/>
      <point x="81" y="986" type="line"/>
      <point x="482" y="22" type="line"/>
      <point x="334" y="-374" type="line"/>
    </contour>
    <contour>
      <point x="493" y="986" type="move" name="top"/>
    </contour>
  </outline>
</glyph>
<glyph name="z" format="1">
  <advance width="893"/>
  <unicode hex="007A"/>
  <outline>
    <contour>
      <point x="151" y="986" type="line"/>
      <point x="761" y="986" type="line"/>
      <point x="761" y="908" type="line"/>
      <point x="227" y="78" type="line"/>
      <point x="768" y="78" type="line"/>
      <point x="768" y="0" type="line"/>
      <point x="120" y="0" type="line"/>
      <point x="120" y="77" type="line"/>
      <point x="654" y="908" type="line"/>
      <point x="151" y="908" type="line"/>
    </contour>
    <contour>
      <point x="458" y="986" type="move" name="top"/>
    </contour>
  </outline>
</glyph>
<glyph name="exclamdown" format="1">
  <advance width="553"/>
  <unicode hex="00A1"/>
  <outline>
    <contour>
      <point x="336" y="84" type="line"/>
      <point x="336" y="6" type="line"/>
      <point x="199" y="6" type="line"/>
      <point x="199" y="84" type="line"/>
      <point x="241" y="1003" type="line"/>
      <point x="282" y="1003" type="line"/>
    </contour>
    <contour>
      <point x="270" y="1192" type="curve" smooth="yes"/>
      <point x="192" y="1192"/>
      <point x="169" y="1247"/>
      <point x="169" y="1294" type="curve" smooth="yes"/>
      <point x="169" y="1341"/>
      <point x="191" y="1398"/>
      <point x="270" y="1398" type="curve" smooth="yes"/>
      <point x="348" y="1398"/>
      <point x="373" y="1342"/>
      <point x="373" y="1294" type="curve" smooth="yes"/>
      <point x="373" y="1247"/>
      <point x="348" y="1192"/>
    </contour>
  </outline>
</glyph>
<glyph name="cent" format="1">
  <advance width="1001"/>
  <unicode hex="00A2"/>
  <outline>
    <contour>
      <point x="575" y="122" type="line"/>
      <point x="649" y="122" type="line"/>
      <point x="649" y="226" type="line"/>
      <point x="730" y="231"/>
      <point x="828" y="261"/>
      <point x="877" y="318" type="curve"/>
      <point x="854" y="385" type="line"/>
      <point x="802" y="348"/>
      <point x="731" y="314"/>
      <point x="649" y="308" type="curve"/>
      <point x="649" y="1195" type="line"/>
      <point x="708" y="1193"/>
      <point x="775" y="1179"/>
      <point x="855" y="1127" type="curve"/>
      <point x="882" y="1194" type="line"/>
      <point x="840" y="1242"/>
      <point x="751" y="1276"/>
      <point x="649" y="1280" type="curve"/>
      <point x="649" y="1424" type="line"/>
      <point x="575" y="1424" type="line"/>
      <point x="575" y="1279" type="line"/>
      <point x="281" y="1252"/>
      <point x="143" y="973"/>
      <point x="141" y="742" type="curve"/>
      <point x="141" y="512"/>
      <point x="277" y="250"/>
      <point x="575" y="226" type="curve"/>
    </contour>
    <contour>
      <point x="575" y="303" type="line"/>
      <point x="368" y="328"/>
      <point x="233" y="517"/>
      <point x="233" y="734" type="curve" smooth="yes"/>
      <point x="233" y="960"/>
      <point x="376" y="1163"/>
      <point x="575" y="1189" type="curve"/>
    </contour>
  </outline>
</glyph>
<glyph name="brokenbar" format="1">
  <advance width="159"/>
  <unicode hex="00A6"/>
  <outline>
    <contour>
      <point x="35" y="-380" type="line"/>
      <point x="116" y="-380" type="line"/>
      <point x="116" y="250" type="line"/>
      <point x="35" y="250" type="line"/>
    </contour>
    <contour>
      <point x="35" y="830" type="line"/>
      <point x="116" y="830" type="line"/>
      <point x="116" y="1457" type="line"/>
      <point x="35" y="1457" type="line"/>
    </contour>
  </outline>
</glyph>
<glyph name="ordfeminine" format="1">
  <advance width="817"/>
  <unicode hex="00AA"/>
  <outline>
    <contour>
      <point x="176" y="882"/>
      <point x="253" y="795"/>
      <point x="372" y="795" type="curve" smooth="yes"/>
      <point x="461" y="795"/>
      <point x="505" y="835"/>
      <point x="536" y="896" type="curve"/>
      <point x="532" y="819" type="line"/>
      <point x="615" y="819" type="line"/>
      <point x="606" y="957"/>
      <point x="607" y="929"/>
      <point x="607" y="947" type="curve" smooth="yes"/>
      <point x="611" y="1246" type="line" smooth="yes"/>
      <point x="611" y="1416"/>
      <point x="519" y="1488"/>
      <point x="414" y="1488" type="curve" smooth="yes"/>
      <point x="308" y="1488"/>
      <point x="231" y="1460"/>
      <point x="175" y="1342" type="curve"/>
      <point x="237" y="1300" type="line" smooth="yes"/>
      <point x="287" y="1400"/>
      <point x="344" y="1399"/>
      <point x="417" y="1399" type="curve" smooth="yes"/>
      <point x="520" y="1399"/>
      <point x="544" y="1343"/>
      <point x="548" y="1225" type="curve"/>
      <point x="548" y="1212" type="line"/>
      <point x="292" y="1200"/>
      <point x="176" y="1165"/>
      <point x="176" y="1003" type="curve" smooth="yes"/>
    </contour>
    <contour>
      <point x="159" y="639" type="line"/>
      <point x="638" y="639" type="line"/>
      <point x="638" y="715" type="line"/>
      <point x="159" y="715" type="line"/>
    </contour>
    <contour>
      <point x="573" y="1023"/>
      <point x="537" y="879"/>
      <point x="389" y="879" type="curve" smooth="yes"/>
      <point x="302" y="879"/>
      <point x="245" y="912"/>
      <point x="245" y="1001" type="curve" smooth="yes"/>
      <point x="245" y="1160"/>
      <point x="456" y="1140"/>
      <point x="548" y="1147" type="curve"/>
      <point x="548" y="1164" type="line"/>
    </contour>
  </outline>
</glyph>
<glyph name="guillemotleft" format="1">
  <advance width="936"/>
  <unicode hex="00AB"/>
  <outline>
    <contour>
      <point x="376" y="147" type="line"/>
      <point x="449" y="165" type="line"/>
      <point x="206" y="506" type="line"/>
      <point x="456" y="841" type="line"/>
      <point x="379" y="860" type="line"/>
      <point x="119" y="496" type="line"/>
      <point x="159" y="453" type="line"/>
    </contour>
    <contour>
      <point x="704" y="147" type="line"/>
      <point x="756" y="165" type="line"/>
      <point x="534" y="506" type="line"/>
      <point x="758" y="841" type="line"/>
      <point x="706" y="860" type="line"/>
      <point x="442" y="516" type="line"/>
    </contour>
  </outline>
</glyph>
<glyph name="macron" format="1">
  <advance width="1090"/>
  <unicode hex="00AF"/>
  <outline>
    <contour>
      <point x="145" y="1426" type="line"/>
      <point x="933" y="1426" type="line"/>
      <point x="933" y="1532" type="line"/>
      <point x="145" y="1532" type="line"/>
    </contour>
    <contour>
      <point x="539" y="986" type="move" name="_top"/>
    </contour>
  </outline>
</glyph>
<glyph name="AE" format="1">
  <advance width="2021"/>
  <unicode hex="00C6"/>
  <outline>
    <contour>
      <point x="1132" y="1362" type="line"/>
      <point x="1173" y="815" type="line"/>
      <point x="1813" y="815" type="line"/>
      <point x="1813" y="703" type="line"/>
      <point x="1190" y="703" type="line"/>
      <point x="1233" y="111" type="line"/>
      <point x="1849" y="111" type="line"/>
      <point x="1860" y="0" type="line"/>
      <point x="1167" y="0" type="line"/>
      <point x="1139" y="425" type="line"/>
      <point x="434" y="425" type="line"/>
      <point x="185" y="0" type="line"/>
      <point x="130" y="0" type="line"/>
      <point x="1019" y="1474" type="line"/>
      <point x="1841" y="1474" type="line"/>
      <point x="1853" y="1362" type="line"/>
    </contour>
    <contour>
      <point x="1116" y="535" type="line"/>
      <point x="1048" y="1410" type="line"/>
      <point x="496" y="535" type="line"/>
    </contour>
    <contour>
      <point x="1010" y="1349" type="move" name="top"/>
    </contour>
  </outline>
</glyph>
<glyph name="multiply" format="1">
  <advance width="687"/>
  <unicode hex="00D7"/>
  <outline>
    <contour>
      <point x="91" y="188" type="line"/>
      <point x="325" y="485" type="line"/>
      <point x="559" y="188" type="line"/>
      <point x="630" y="240" type="line"/>
      <point x="630" y="240"/>
      <point x="323" y="601"/>
      <point x="372" y="558" type="curve"/>
      <point x="630" y="874" type="line"/>
      <point x="564" y="927" type="line"/>
      <point x="325" y="630" type="line"/>
      <point x="87" y="927" type="line"/>
      <point x="18" y="873" type="line"/>
      <point x="278" y="558" type="line"/>
      <point x="18" y="241" type="line"/>
    </contour>
  </outline>
</glyph>
<glyph name="Thorn" format="1">
  <advance width="1250"/>
  <unicode hex="00DE"/>
  <outline>
    <contour>
      <point x="123" y="-11" type="line"/>
      <point x="244" y="-11" type="line"/>
      <point x="244" y="323" type="line"/>
      <point x="204" y="323"/>
      <point x="655" y="312"/>
      <point x="666" y="312" type="curve" smooth="yes"/>
      <point x="1010" y="312"/>
      <point x="1075" y="494"/>
      <point x="1075" y="720" type="curve" smooth="yes"/>
      <point x="1075" y="1003"/>
      <point x="929" y="1094"/>
      <point x="576" y="1094" type="curve" smooth="yes"/>
      <point x="244" y="1094" type="line"/>
      <point x="244" y="1384" type="line"/>
      <point x="123" y="1384" type="line"/>
    </contour>
    <contour>
      <point x="243" y="412" type="line"/>
      <point x="244" y="989" type="line"/>
      <point x="592" y="989" type="line" smooth="yes"/>
      <point x="886" y="989"/>
      <point x="970" y="897"/>
      <point x="970" y="703" type="curve" smooth="yes"/>
      <point x="970" y="544"/>
      <point x="908" y="412"/>
      <point x="639" y="412" type="curve" smooth="yes"/>
    </contour>
  </outline>
</glyph>
<glyph name="eth" format="1">
  <advance width="1231"/>
  <unicode hex="00F0"/>
  <outline>
    <contour>
      <point x="148" y="210"/>
      <point x="292" y="-27"/>
      <point x="603" y="-27" type="curve" smooth="yes"/>
      <point x="923" y="-27"/>
      <point x="1059" y="204"/>
      <point x="1059" y="464" type="curve"/>
      <point x="1059" y="587"/>
      <point x="1035" y="693"/>
      <point x="966" y="826" type="curve"/>
      <point x="903" y="942"/>
      <point x="794" y="1079"/>
      <point x="620" y="1261" type="curve"/>
      <point x="870" y="1354" type="line"/>
      <point x="844" y="1436" type="line"/>
      <point x="563" y="1330" type="line"/>
      <point x="410" y="1490" type="line"/>
      <point x="272" y="1490" type="line"/>
      <point x="508" y="1288" type="line"/>
      <point x="276" y="1200" type="line"/>
      <point x="299" y="1112" type="line"/>
      <point x="565" y="1222" type="line"/>
      <point x="795" y="1002"/>
      <point x="886" y="868"/>
      <point x="931" y="769" type="curve"/>
      <point x="865" y="825"/>
      <point x="761" y="900"/>
      <point x="580" y="900" type="curve" smooth="yes"/>
      <point x="319" y="900"/>
      <point x="148" y="718"/>
      <point x="148" y="448" type="curve" smooth="yes"/>
    </contour>
    <contour>
      <point x="953" y="227"/>
      <point x="831" y="55"/>
      <point x="608" y="55" type="curve" smooth="yes"/>
      <point x="369" y="55"/>
      <point x="262" y="255"/>
      <point x="262" y="446" type="curve" smooth="yes"/>
      <point x="262" y="630"/>
      <point x="388" y="804"/>
      <point x="602" y="804" type="curve" smooth="yes"/>
      <point x="832" y="804"/>
      <point x="953" y="604"/>
      <point x="953" y="430" type="curve" smooth="yes"/>
    </contour>
  </outline>
</glyph>
<glyph name="oslash" format="1">
  <advance width="1248"/>
  <unicode hex="00F8"/>
  <outline>
    <contour>
      <point x="316" y="-281" type="line"/>
      <point x="441" y="4" type="line"/>
      <point x="493" y="-18"/>
      <point x="553" y="-29"/>
      <point x="618" y="-29" type="curve" smooth="yes"/>
      <point x="908" y="-29"/>
      <point x="1069" y="230"/>
      <point x="1069" y="493" type="curve" smooth="yes"/>
      <point x="1069" y="688"/>
      <point x="995" y="871"/>
      <point x="844" y="958" type="curve"/>
      <point x="967" y="1258" type="line"/>
      <point x="904" y="1288" type="line"/>
      <point x="784" y="987" type="line"/>
      <point x="737" y="1004"/>
      <point x="678" y="1016"/>
      <point x="619" y="1016" type="curve" smooth="yes"/>
      <point x="324" y="1016"/>
      <point x="150" y="764"/>
      <point x="150" y="490" type="curve" smooth="yes"/>
      <point x="150" y="299"/>
      <point x="232" y="121"/>
      <point x="380" y="33" type="curve"/>
      <point x="259" y="-250" type="line"/>
    </contour>
    <contour>
      <point x="414" y="112" type="line"/>
      <point x="300" y="194"/>
      <point x="247" y="342"/>
      <point x="247" y="481" type="curve" smooth="yes"/>
      <point x="247" y="679"/>
      <point x="354" y="926"/>
      <point x="618" y="926" type="curve" smooth="yes"/>
      <point x="669" y="926"/>
      <point x="713" y="918"/>
      <point x="752" y="904" type="curve"/>
    </contour>
    <contour>
      <point x="973" y="296"/>
      <point x="885" y="63"/>
      <point x="620" y="63" type="curve" smooth="yes"/>
      <point x="565" y="63"/>
      <point x="515" y="72"/>
      <point x="473" y="90" type="curve"/>
      <point x="812" y="886" type="line"/>
      <point x="929" y="806"/>
      <point x="973" y="651"/>
      <point x="973" y="497" type="curve" smooth="yes"/>
    </contour>
    <contour>
      <point x="623" y="986" type="move" name="top"/>
    </contour>
  </outline>
</glyph>
<glyph name="IJ" format="1">
  <advance width="1127"/>
  <unicode hex="0132"/>
  <outline>
    <contour>
      <point x="632" y="-136" type="line"/>
      <point x="609" y="-131"/>
      <point x="641" y="-130"/>
      <point x="619" y="-130" type="curve" smooth="yes"/>
      <point x="942" y="-130"/>
      <point x="925" y="0"/>
      <point x="925" y="268" type="curve" smooth="yes"/>
      <point x="925" y="1349" type="line"/>
      <point x="835" y="1349" type="line"/>
      <point x="835" y="226" type="line" smooth="yes"/>
      <point x="835" y="98"/>
      <point x="840" y="-19"/>
      <point x="648" y="-19" type="curve" smooth="yes"/>
      <point x="665" y="-19"/>
      <point x="579" y="-21"/>
      <point x="608" y="-25" type="curve"/>
    </contour>
    <contour>
      <point x="141" y="0" type="line"/>
      <point x="230" y="0" type="line"/>
      <point x="230" y="1349" type="line"/>
      <point x="141" y="1349" type="line"/>
    </contour>
  </outline>
</glyph>
<glyph name="eng" format="1">
  <advance width="1137"/>
  <unicode hex="014B"/>
  <outline>
    <contour>
      <point x="658" y="-237" type="line"/>
      <point x="893" y="-237"/>
      <point x="921" y="-100"/>
      <point x="921" y="172" type="curve"/>
      <point x="921" y="594" type="line" smooth="yes"/>
      <point x="921" y="873"/>
      <point x="830" y="1005"/>
      <point x="604" y="1005" type="curve" smooth="yes"/>
      <point x="460" y="1005"/>
      <point x="354" y="952"/>
      <point x="288" y="824" type="curve"/>
      <point x="273" y="986" type="line"/>
      <point x="169" y="986" type="line"/>
      <point x="169" y="0" type="line"/>
      <point x="283" y="0" type="line"/>
      <point x="283" y="579" type="line" smooth="yes"/>
      <point x="283" y="607"/>
      <point x="286" y="634"/>
      <point x="286" y="668" type="curve"/>
      <point x="312" y="809"/>
      <point x="383" y="919"/>
      <point x="593" y="919" type="curve" smooth="yes"/>
      <point x="767" y="919"/>
      <point x="807" y="806"/>
      <point x="807" y="630" type="curve"/>
      <point x="807" y="122" type="line" smooth="yes"/>
      <point x="807" y="-94"/>
      <point x="790" y="-119"/>
      <point x="617" y="-119" type="curve" smooth="yes"/>
      <point x="594" y="-119" type="line"/>
      <point x="594" y="-237" type="line"/>
    </contour>
  </outline>
</glyph>
<glyph name="uni01F1" format="1">
  <advance width="2598"/>
  <unicode hex="01F1"/>
  <outline>
    <contour>
      <point x="1506" y="0" type="line"/>
      <point x="2400" y="0" type="line"/>
      <point x="2409" y="87" type="line"/>
      <point x="1607" y="87" type="line"/>
      <point x="2401" y="1279" type="line"/>
      <point x="2401" y="1349" type="line"/>
      <point x="1536" y="1349" type="line"/>
      <point x="1537" y="1261" type="line"/>
      <point x="2283" y="1261" type="line"/>
      <point x="1506" y="92" type="line"/>
    </contour>
    <contour>
      <point x="230" y="82" type="line"/>
      <point x="230" y="1265" type="line"/>
      <point x="479" y="1265" type="line" smooth="yes"/>
      <point x="875" y="1265"/>
      <point x="1123" y="1101"/>
      <point x="1123" y="669" type="curve" smooth="yes"/>
      <point x="1123" y="276"/>
      <point x="902" y="82"/>
      <point x="505" y="82" type="curve" smooth="yes"/>
    </contour>
    <contour>
      <point x="141" y="0" type="line"/>
      <point x="525" y="0" type="line" smooth="yes"/>
      <point x="961" y="0"/>
      <point x="1214" y="223"/>
      <point x="1214" y="673" type="curve" smooth="yes"/>
      <point x="1214" y="1150"/>
      <point x="931" y="1349"/>
      <point x="496" y="1349" type="curve" smooth="yes"/>
      <point x="141" y="1349" type="line"/>
    </contour>
  </outline>
</glyph>
<glyph name="circumflex" format="1">
  <advance width="764"/>
  <unicode hex="02C6"/>
  <outline>
    <contour>
      <point x="148" y="1199" type="line"/>
      <point x="221" y="1199" type="line"/>
      <point x="372" y="1483" type="line"/>
      <point x="510" y="1199" type="line"/>
      <point x="582" y="1199" type="line"/>
      <point x="462" y="1542" type="line"/>
      <point x="270" y="1542" type="line"/>
    </contour>
    <contour>
      <point x="365" y="986" type="move" name="_top"/>
    </contour>
  </outline>
</glyph>
<glyph name="hungarumlaut" format="1">
  <advance width="650"/>
  <unicode hex="02DD"/>
  <outline>
    <contour>
      <point x="111" y="1212" type="line"/>
      <point x="163" y="1212" type="line"/>
      <point x="327" y="1494" type="line"/>
      <point x="253" y="1494" type="line"/>
    </contour>
    <contour>
      <point x="278" y="1212" type="line"/>
      <point x="333" y="1212" type="line"/>
      <point x="488" y="1494" type="line"/>
      <point x="420" y="1494" type="line"/>
    </contour>
    <contour>
      <point x="299" y="986" type="move" name="_top"/>
    </contour>
  </outline>
</glyph>
<glyph name="Alpha" format="1">
  <advance width="1457"/>
  <unicode hex="0391"/>
  <outline>
    <contour>
      <point x="163" y="0" type="line"/>
      <point x="241" y="0" type="line"/>
      <point x="426" y="471" type="line"/>
      <point x="1026" y="471" type="line"/>
      <point x="1202" y="0" type="line"/>
      <point x="1274" y="0" type="line"/>
      <point x="765" y="1349" type="line"/>
      <point x="668" y="1349" type="line"/>
    </contour>
    <contour>
      <point x="472" y="550" type="line"/>
      <point x="456" y="504"/>
      <point x="706" y="1237"/>
      <point x="714" y="1273" type="curve"/>
      <point x="725" y="1227"/>
      <point x="999" y="508"/>
      <point x="984" y="550" type="curve"/>
    </contour>
    <contour>
      <point x="728" y="1349" type="move" name="top"/>
    </contour>
  </outline>
</glyph>
<glyph name="Beta" format="1">
  <advance width="1225"/>
  <unicode hex="0392"/>
  <outline>
    <contour>
      <point x="150" y="0" type="line"/>
      <point x="570" y="0" type="line" smooth="yes"/>
      <point x="906" y="0"/>
      <point x="1029" y="153"/>
      <point x="1029" y="376" type="curve" smooth="yes"/>
      <point x="1029" y="539"/>
      <point x="943" y="687"/>
      <point x="722" y="712" type="curve"/>
      <point x="980" y="776"/>
      <point x="978" y="969"/>
      <point x="978" y="1025" type="curve" smooth="yes"/>
      <point x="978" y="1246"/>
      <point x="824" y="1349"/>
      <point x="475" y="1349" type="curve" smooth="yes"/>
      <point x="150" y="1349" type="line"/>
    </contour>
    <contour>
      <point x="210" y="69" type="line"/>
      <point x="210" y="665" type="line"/>
      <point x="493" y="665" type="line" smooth="yes"/>
      <point x="792" y="665"/>
      <point x="957" y="599"/>
      <point x="957" y="374" type="curve" smooth="yes"/>
      <point x="957" y="169"/>
      <point x="818" y="69"/>
      <point x="555" y="69" type="curve" smooth="yes"/>
    </contour>
    <contour>
      <point x="210" y="750" type="line"/>
      <point x="210" y="1273" type="line"/>
      <point x="486" y="1273" type="line" smooth="yes"/>
      <point x="744" y="1273"/>
      <point x="899" y="1217"/>
      <point x="899" y="1014" type="curve" smooth="yes"/>
      <point x="899" y="801"/>
      <point x="761" y="750"/>
      <point x="569" y="750" type="curve" smooth="yes"/>
    </contour>
  </outline>
</glyph>
<glyph name="Lambda" format="1">
  <advance width="1525"/>
  <unicode hex="039B"/>
  <outline>
    <contour>
      <point x="1192" y="0" type="line"/>
      <point x="756" y="1210" type="line"/>
      <point x="328" y="0" type="line"/>
      <point x="171" y="0" type="line"/>
      <point x="676" y="1355" type="line"/>
      <point x="838" y="1355" type="line"/>
      <point x="1344" y="0" type="line"/>
    </contour>
  </outline>
</glyph>
<glyph name="Mu" format="1">
  <advance width="1603"/>
  <unicode hex="039C"/>
  <outline>
    <contour>
      <point x="124" y="0" type="line"/>
      <point x="214" y="0" type="line"/>
      <point x="214" y="905" type="line"/>
      <point x="200" y="1243" type="line"/>
      <point x="249" y="1116" type="line"/>
      <point x="739" y="79" type="line"/>
      <point x="844" y="79" type="line"/>
      <point x="1315" y="1113" type="line"/>
      <point x="1365" y="1240" type="line"/>
      <point x="1357" y="910" type="line"/>
      <point x="1357" y="0" type="line"/>
      <point x="1441" y="0" type="line"/>
      <point x="1441" y="1349" type="line"/>
      <point x="1319" y="1349" type="line"/>
      <point x="784" y="186" type="line"/>
      <point x="255" y="1349" type="line"/>
      <point x="124" y="1349" type="line"/>
    </contour>
  </outline>
</glyph>
<glyph name="Sigma" format="1">
  <advance width="1123"/>
  <unicode hex="03A3"/>
  <outline>
    <contour>
      <point x="142" y="0" type="line"/>
      <point x="933" y="0" type="line"/>
      <point x="940" y="86" type="line"/>
      <point x="232" y="86" type="line"/>
      <point x="232" y="651" type="line"/>
      <point x="874" y="651" type="line"/>
      <point x="874" y="740" type="line"/>
      <point x="232" y="740" type="line"/>
      <point x="232" y="1263" type="line"/>
      <point x="943" y="1263" type="line"/>
      <point x="947" y="1349" type="line"/>
      <point x="142" y="1349" type="line"/>
    </contour>
  </outline>
</glyph>
<glyph name="chi" format="1">
  <advance width="1246"/>
  <unicode hex="03C7"/>
  <outline>
    <contour>
      <point x="168" y="0" type="line"/>
      <point x="275" y="0" type="line"/>
      <point x="598" y="423" type="line"/>
      <point x="925" y="0" type="line"/>
      <point x="1033" y="0" type="line"/>
      <point x="648" y="496" type="line"/>
      <point x="1026" y="985" type="line"/>
      <point x="903" y="985" type="line"/>
      <point x="596" y="580" type="line"/>
      <point x="286" y="985" type="line"/>
      <point x="180" y="985" type="line"/>
      <point x="544" y="500" type="line"/>
    </contour>
  </outline>
</glyph>
<glyph name="uni0405" format="1">
  <advance width="1323"/>
  <unicode hex="0405"/>
  <outline>
    <contour>
      <point x="216" y="56"/>
      <point x="401" y="-22"/>
      <point x="684" y="-22" type="curve" smooth="yes"/>
      <point x="954" y="-22"/>
      <point x="1145" y="104"/>
      <point x="1145" y="401" type="curve" smooth="yes"/>
      <point x="1145" y="626"/>
      <point x="988" y="720"/>
      <point x="807" y="750" type="curve"/>
      <point x="515" y="805" type="line" smooth="yes"/>
      <point x="331" y="845"/>
      <point x="240" y="913"/>
      <point x="240" y="1046" type="curve" smooth="yes"/>
      <point x="240" y="1230"/>
      <point x="391" y="1294"/>
      <point x="671" y="1294" type="curve" smooth="yes"/>
      <point x="839" y="1294"/>
      <point x="955" y="1275"/>
      <point x="1052" y="1225" type="curve"/>
      <point x="1072" y="1293" type="line"/>
      <point x="1000" y="1344"/>
      <point x="843" y="1371"/>
      <point x="671" y="1371" type="curve" smooth="yes"/>
      <point x="350" y="1371"/>
      <point x="150" y="1305"/>
      <point x="150" y="1031" type="curve" smooth="yes"/>
      <point x="150" y="858"/>
      <point x="282" y="768"/>
      <point x="487" y="725" type="curve" smooth="yes"/>
      <point x="787" y="660" type="line" smooth="yes"/>
      <point x="1017" y="608"/>
      <point x="1058" y="519"/>
      <point x="1058" y="390" type="curve" smooth="yes"/>
      <point x="1058" y="166"/>
      <point x="926" y="57"/>
      <point x="694" y="57" type="curve" smooth="yes"/>
      <point x="488" y="57"/>
      <point x="345" y="103"/>
      <point x="193" y="171" type="curve"/>
      <point x="157" y="97" type="line"/>
    </contour>
  </outline>
</glyph>
<glyph name="afii10018" format="1">
  <advance width="1198"/>
  <unicode hex="0411"/>
  <outline>
    <contour>
      <point x="308" y="688" type="line"/>
      <point x="308" y="80" type="line"/>
      <point x="662" y="80" type="line" smooth="yes"/>
      <point x="875" y="80"/>
      <point x="964" y="177"/>
      <point x="964" y="385" type="curve" smooth="yes"/>
      <point x="964" y="597"/>
      <point x="873" y="688"/>
      <point x="649" y="688" type="curve" smooth="yes"/>
    </contour>
    <contour>
      <point x="1078" y="389" type="curve" smooth="yes"/>
      <point x="1078" y="181"/>
      <point x="1026" y="0"/>
      <point x="656" y="0" type="curve" smooth="yes"/>
      <point x="198" y="0" type="line"/>
      <point x="198" y="1353" type="line"/>
      <point x="952" y="1353" type="line"/>
      <point x="952" y="1267" type="line"/>
      <point x="308" y="1267" type="line"/>
      <point x="308" y="766" type="line"/>
      <point x="650" y="766" type="line" smooth="yes"/>
      <point x="1018" y="766"/>
      <point x="1078" y="588"/>
    </contour>
  </outline>
</glyph>
<glyph name="afii10022" format="1">
  <advance width="1067"/>
  <unicode hex="0415"/>
  <outline>
    <component base="E"/>
    <contour>
      <point x="538" y="1346" type="move" name="top"/>
    </contour>
  </outline>
</glyph>
<glyph name="uni0429" format="1">
  <advance width="1532"/>
  <unicode hex="0429"/>
  <outline>
    <contour>
      <point x="1301" y="-257" type="line"/>
      <point x="1407" y="-257" type="line"/>
      <point x="1407" y="160" type="line"/>
      <point x="1327" y="160" type="line"/>
      <point x="1327" y="1353" type="line"/>
      <point x="1237" y="1353" type="line"/>
      <point x="1237" y="106" type="line"/>
      <point x="794" y="106" type="line"/>
      <point x="794" y="1353" type="line"/>
      <point x="705" y="1353" type="line"/>
      <point x="705" y="106" type="line"/>
      <point x="287" y="106" type="line"/>
      <point x="287" y="1353" type="line"/>
      <point x="198" y="1353" type="line"/>
      <point x="198" y="0" type="line"/>
      <point x="1302" y="0" type="line"/>
    </contour>
  </outline>
</glyph>
<glyph name="uni042A" format="1">
  <advance width="1420"/>
  <unicode hex="042A"/>
  <outline>
    <contour>
      <point x="531" y="-11" type="line"/>
      <point x="828" y="-11" type="line" smooth="yes"/>
      <point x="1147" y="-11"/>
      <point x="1311" y="105"/>
      <point x="1311" y="349" type="curve" smooth="yes"/>
      <point x="1311" y="593"/>
      <point x="1167" y="716"/>
      <point x="829" y="716" type="curve" smooth="yes"/>
      <point x="664" y="716" type="line"/>
      <point x="664" y="1359" type="line"/>
      <point x="200" y="1359" type="line"/>
      <point x="200" y="1258" type="line"/>
      <point x="531" y="1258" type="line"/>
    </contour>
    <contour>
      <point x="664" y="91" type="line"/>
      <point x="664" y="615" type="line"/>
      <point x="848" y="615" type="line" smooth="yes"/>
      <point x="1115" y="615"/>
      <point x="1168" y="517"/>
      <point x="1168" y="359" type="curve" smooth="yes"/>
      <point x="1168" y="185"/>
      <point x="1125" y="91"/>
      <point x="847" y="91" type="curve" smooth="yes"/>
    </contour>
  </outline>
</glyph>
<glyph name="uni044D" format="1">
  <advance width="1117"/>
  <unicode hex="044D"/>
  <outline>
    <contour>
      <point x="216" y="9"/>
      <point x="337" y="-26"/>
      <point x="466" y="-26" type="curve" smooth="yes"/>
      <point x="815" y="-26"/>
      <point x="948" y="259"/>
      <point x="948" y="478" type="curve" smooth="yes"/>
      <point x="948" y="721"/>
      <point x="843" y="1016"/>
      <point x="453" y="1016" type="curve" smooth="yes"/>
      <point x="359" y="1016"/>
      <point x="227" y="985"/>
      <point x="159" y="923" type="curve"/>
      <point x="193" y="852" type="line"/>
      <point x="268" y="897"/>
      <point x="347" y="932"/>
      <point x="455" y="932" type="curve" smooth="yes"/>
      <point x="716" y="932"/>
      <point x="835" y="759"/>
      <point x="851" y="537" type="curve"/>
      <point x="439" y="537" type="line"/>
      <point x="439" y="443" type="line"/>
      <point x="851" y="443" type="line"/>
      <point x="836" y="227"/>
      <point x="688" y="60"/>
      <point x="460" y="60" type="curve" smooth="yes"/>
      <point x="384" y="60"/>
      <point x="298" y="77"/>
      <point x="196" y="135" type="curve"/>
      <point x="167" y="62" type="line"/>
    </contour>
  </outline>
</glyph>
<glyph name="uni044F" format="1">
  <advance width="1102"/>
  <unicode hex="044F"/>
  <outline>
    <contour>
      <point x="140" y="0" type="line"/>
      <point x="275" y="0" type="line"/>
      <point x="456" y="404" type="line"/>
      <point x="773" y="404" type="line"/>
      <point x="773" y="0" type="line"/>
      <point x="891" y="0" type="line"/>
      <point x="891" y="988" type="line"/>
      <point x="466" y="988" type="line" smooth="yes"/>
      <point x="192" y="988"/>
      <point x="123" y="817"/>
      <point x="123" y="685" type="curve" smooth="yes"/>
      <point x="123" y="582"/>
      <point x="177" y="453"/>
      <point x="338" y="410" type="curve"/>
    </contour>
    <contour>
      <point x="432" y="487" type="line"/>
      <point x="290" y="487"/>
      <point x="245" y="559"/>
      <point x="245" y="685" type="curve" smooth="yes"/>
      <point x="245" y="784"/>
      <point x="289" y="908"/>
      <point x="432" y="908" type="curve" smooth="yes"/>
      <point x="773" y="908" type="line"/>
      <point x="773" y="487" type="line"/>
    </contour>
  </outline>
</glyph>
<glyph name="endash" format="1">
  <advance width="1206"/>
  <unicode hex="2013"/>
  <outline>
    <contour>
      <point x="128" y="520" type="line"/>
      <point x="128" y="621" type="line"/>
      <point x="1052" y="621" type="line"/>
      <point x="1052" y="520" type="line"/>
    </contour>
  </outline>
</glyph>
<glyph name="quotedblleft" format="1">
  <advance width="758"/>
  <unicode hex="201C"/>
  <outline>
    <contour>
      <point x="151" y="826" type="line"/>
      <point x="208" y="1466" type="line"/>
      <point x="323" y="1711" type="line"/>
      <point x="288" y="1073" type="line"/>
    </contour>
    <contour>
      <point x="438" y="826" type="line"/>
      <point x="503" y="1466" type="line"/>
      <point x="609" y="1711" type="line"/>
      <point x="586" y="1073" type="line"/>
    </contour>
  </outline>
</glyph>
<glyph name="quotedblright" format="1">
  <advance width="575"/>
  <unicode hex="201D"/>
  <outline>
    <contour>
      <point x="75" y="1066" type="line"/>
      <point x="134" y="1066" type="line"/>
      <point x="246" y="1468" type="line"/>
      <point x="148" y="1468" type="line"/>
    </contour>
    <contour>
      <point x="332" y="1071" type="line"/>
      <point x="397" y="1071" type="line"/>
      <point x="505" y="1468" type="line"/>
      <point x="407" y="1468" type="line"/>
    </contour>
  </outline>
</glyph>
<glyph name="bullet" format="1">
  <advance width="761"/>
  <unicode hex="2022"/>
  <outline>
    <contour>
      <point x="96" y="512"/>
      <point x="236" y="415"/>
      <point x="377" y="415" type="curve" smooth="yes"/>
      <point x="520" y="415"/>
      <point x="665" y="515"/>
      <point x="665" y="714" type="curve" smooth="yes"/>
      <point x="665" y="913"/>
      <point x="524" y="1012"/>
      <point x="382" y="1012" type="curve" smooth="yes"/>
      <point x="239" y="1012"/>
      <point x="96" y="911"/>
      <point x="96" y="710" type="curve" smooth="yes"/>
    </contour>
  </outline>
</glyph>
<glyph name="guilsinglleft" format="1">
  <advance width="597"/>
  <unicode hex="2039"/>
  <outline>
    <contour>
      <point x="222" y="536" type="line"/>
      <point x="406" y="173" type="line"/>
      <point x="338" y="173" type="line"/>
      <point x="144" y="536" type="line"/>
      <point x="340" y="891" type="line"/>
      <point x="412" y="891" type="line"/>
    </contour>
  </outline>
</glyph>
<glyph name="guilsinglright" format="1">
  <advance width="607"/>
  <unicode hex="203A"/>
  <outline>
    <contour>
      <point x="437" y="537" type="line"/>
      <point x="244" y="173" type="line"/>
      <point x="173" y="173" type="line"/>
      <point x="362" y="537" type="line"/>
      <point x="177" y="891" type="line"/>
      <point x="248" y="891" type="line"/>
    </contour>
  </outline>
</glyph>
<glyph name="Euro" format="1">
  <advance width="1227"/>
  <unicode hex="20AC"/>
  <outline>
    <contour>
      <point x="1129" y="63" type="curve"/>
      <point x="1097" y="147" type="line"/>
      <point x="1005" y="107"/>
      <point x="924" y="72"/>
      <point x="801" y="72" type="curve" smooth="yes"/>
      <point x="493" y="72"/>
      <point x="316" y="248"/>
      <point x="264" y="541" type="curve"/>
      <point x="223" y="504" type="line"/>
      <point x="877" y="504" type="line"/>
      <point x="887" y="592" type="line"/>
      <point x="210" y="592" type="line"/>
      <point x="262" y="552" type="line"/>
      <point x="259" y="579"/>
      <point x="254" y="647"/>
      <point x="254" y="675" type="curve" smooth="yes"/>
      <point x="254" y="710"/>
      <point x="258" y="779"/>
      <point x="262" y="812" type="curve"/>
      <point x="207" y="778" type="line"/>
      <point x="887" y="778" type="line"/>
      <point x="897" y="863" type="line"/>
      <point x="215" y="863" type="line"/>
      <point x="266" y="823" type="line"/>
      <point x="320" y="1110"/>
      <point x="497" y="1282"/>
      <point x="781" y="1282" type="curve" smooth="yes"/>
      <point x="899" y="1282"/>
      <point x="1016" y="1248"/>
      <point x="1097" y="1195" type="curve"/>
      <point x="1143" y="1267" type="line"/>
      <point x="1065" y="1327"/>
      <point x="936" y="1372"/>
      <point x="768" y="1372" type="curve" smooth="yes"/>
      <point x="423" y="1372"/>
      <point x="207" y="1162"/>
      <point x="149" y="823" type="curve"/>
      <point x="187" y="863" type="line"/>
      <point x="46" y="863" type="line"/>
      <point x="36" y="778" type="line"/>
      <point x="184" y="778" type="line"/>
      <point x="147" y="812" type="line"/>
      <point x="144" y="780"/>
      <point x="140" y="714"/>
      <point x="140" y="681" type="curve" smooth="yes"/>
      <point x="140" y="651"/>
      <point x="145" y="581"/>
      <point x="148" y="552" type="curve"/>
      <point x="187" y="592" type="line"/>
      <point x="38" y="592" type="line"/>
      <point x="28" y="504" type="line"/>
      <point x="196" y="504" type="line"/>
      <point x="149" y="541" type="line"/>
      <point x="207" y="187"/>
      <point x="450" y="-18"/>
      <point x="779" y="-18" type="curve" smooth="yes"/>
      <point x="958" y="-18"/>
      <point x="1111" y="38"/>
    </contour>
  </outline>
</glyph>
<glyph name="trademark" format="1">
  <advance width="1722"/>
  <unicode hex="2122"/>
  <outline>
    <contour>
      <point x="813" y="527" type="line"/>
      <point x="866" y="527" type="line"/>
      <point x="866" y="1354" type="line"/>
      <point x="1160" y="625" type="line"/>
      <point x="1218" y="625" type="line"/>
      <point x="1531" y="1348" type="line"/>
      <point x="1531" y="527" type="line"/>
      <point x="1589" y="527" type="line"/>
      <point x="1589" y="1371" type="line"/>
      <point x="1499" y="1371" type="line"/>
      <point x="1196" y="676" type="line"/>
      <point x="907" y="1371" type="line"/>
      <point x="813" y="1371" type="line"/>
    </contour>
    <contour>
      <point x="334" y="527" type="line"/>
      <point x="391" y="527" type="line"/>
      <point x="391" y="1322" type="line"/>
      <point x="647" y="1322" type="line"/>
      <point x="647" y="1371" type="line"/>
      <point x="91" y="1371" type="line"/>
      <point x="90" y="1322" type="line"/>
      <point x="334" y="1322" type="line"/>
    </contour>
  </outline>
</glyph>
<glyph name="lessequal" format="1">
  <advance width="1144"/>
  <unicode hex="2264"/>
  <outline>
    <contour>
      <point x="974" y="222" type="line"/>
      <point x="974" y="319" type="line"/>
      <point x="220" y="708" type="line"/>
      <point x="974" y="1106" type="line"/>
      <point x="974" y="1206" type="line"/>
      <point x="160" y="730" type="line"/>
      <point x="160" y="671" type="line"/>
    </contour>
    <contour>
      <point x="115" y="10" type="line"/>
      <point x="1010" y="10" type="line"/>
      <point x="1010" y="107" type="line"/>
      <point x="115" y="108" type="line"/>
    </contour>
  </outline>
</glyph>
<glyph name="greaterequal" format="1">
  <advance width="1141"/>
  <unicode hex="2265"/>
  <outline>
    <contour>
      <point x="157" y="225" type="line"/>
      <point x="982" y="674" type="line"/>
      <point x="982" y="730" type="line"/>
      <point x="162" y="1209" type="line"/>
      <point x="162" y="1111" type="line"/>
      <point x="920" y="702" type="line"/>
      <point x="157" y="321" type="line"/>
    </contour>
    <contour>
      <point x="119" y="10" type="line"/>
      <point x="1007" y="10" type="line"/>
      <point x="1007" y="108" type="line"/>
      <point x="119" y="107" type="line"/>
    </contour>
  </outline>
</glyph>
